<svg width="44" height="44" fill="none" xmlns="http://www.w3.org/2000/svg"><path d="M44 22c0 6.08-2.46 11.58-6.44 15.56A21.93 21.93 0 0 1 22 44a21.93 21.93 0 0 1-15.56-6.44A21.93 21.93 0 0 1 0 22c0-6.08 2.46-11.58 6.44-15.56A21.93 21.93 0 0 1 22 0c6.08 0 11.58 2.46 15.56 6.44A21.93 21.93 0 0 1 44 22Z" fill="#fff"/><g clip-path="url(#a)" fill="#AFB1B8"><path d="M31.98 17.88a7.3 7.3 0 0 0-.46-2.43 4.88 4.88 0 0 0-1.16-1.77c-.5-.5-1.1-.9-1.77-1.15a7.33 7.33 0 0 0-2.43-.47 68.26 68.26 0 0 0-4.12-.06c-2.72 0-3.06.01-4.12.06-1.07.05-1.8.22-2.43.46-.67.26-1.27.65-1.77 1.16-.51.5-.9 1.1-1.16 1.77a7.33 7.33 0 0 0-.46 2.43 68.3 68.3 0 0 0-.06 4.12c0 2.72 0 3.06.05 4.12a7.3 7.3 0 0 0 .47 2.43c.25.67.65 1.27 1.16 1.77.5.51 1.1.9 1.77 1.16.63.24 1.36.41 2.42.46 1.07.05 1.4.06 4.12.06s3.06-.01 4.13-.06a7.3 7.3 0 0 0 2.42-.46 5.12 5.12 0 0 0 2.93-2.93c.24-.64.42-1.36.46-2.43.05-1.06.06-1.4.06-4.12 0-2.71 0-3.05-.05-4.12Zm-1.8 8.17c-.04.97-.2 1.5-.34 1.85a3.32 3.32 0 0 1-1.9 1.9c-.35.14-.89.3-1.86.34-1.05.05-1.37.06-4.04.06a70.3 70.3 0 0 1-4.04-.06c-.98-.04-1.5-.2-1.85-.34a3.08 3.08 0 0 1-1.15-.75 3.1 3.1 0 0 1-.75-1.14 5.5 5.5 0 0 1-.34-1.86 70.39 70.39 0 0 1-.06-4.04c0-2.67.01-2.99.06-4.04.04-.98.2-1.5.34-1.86.16-.43.41-.82.75-1.14a3.1 3.1 0 0 1 1.15-.75c.35-.14.88-.3 1.86-.34 1.05-.05 1.37-.06 4.03-.06 2.68 0 3 0 4.04.06.98.04 1.5.2 1.86.34.43.16.83.41 1.15.75.33.32.59.71.75 1.14.13.36.3.89.34 1.86.05 1.05.06 1.37.06 4.04s-.01 2.98-.06 4.04Z"/><path d="M22.04 16.86a5.14 5.14 0 1 0 0 10.28 5.14 5.14 0 0 0 0-10.28Zm0 8.47a3.33 3.33 0 1 1 0-6.66 3.33 3.33 0 0 1 0 6.66ZM28.58 16.66a1.2 1.2 0 1 1-2.4 0 1.2 1.2 0 0 1 2.4 0Z"/></g><defs><clipPath id="a"><path fill="#fff" transform="translate(12 12)" d="M0 0h20v20H0z"/></clipPath></defs></svg>