<svg width="44" height="44" fill="none" xmlns="http://www.w3.org/2000/svg"><path d="M44 22c0 6.08-2.46 11.58-6.44 15.56A21.93 21.93 0 0 1 22 44a21.93 21.93 0 0 1-15.56-6.44A21.93 21.93 0 0 1 0 22c0-6.08 2.46-11.58 6.44-15.56A21.93 21.93 0 0 1 22 0c6.08 0 11.58 2.46 15.56 6.44A21.93 21.93 0 0 1 44 22Z" fill="#fff"/><g clip-path="url(#a)" fill="#AFB1B8"><path d="M32 32v-7.34c0-3.58-.77-6.35-4.97-6.35a4.35 4.35 0 0 0-3.92 2.16h-.06v-1.82h-3.98V32h4.15v-6.61c0-1.74.33-3.43 2.48-3.43 2.13 0 2.16 1.99 2.16 3.54V32H32ZM12.33 18.65h4.15V32h-4.15V18.65ZM14.4 12a2.4 2.4 0 0 0-2.4 2.4 2.42 2.42 0 0 0 2.4 2.43c1.33 0 2.4-1.1 2.4-2.43a2.4 2.4 0 0 0-2.4-2.4Z"/></g><defs><clipPath id="a"><path fill="#fff" transform="translate(12 12)" d="M0 0h20v20H0z"/></clipPath></defs></svg>