<svg width="44" height="44" fill="none" xmlns="http://www.w3.org/2000/svg"><path d="M44 22c0 6.08-2.46 11.58-6.44 15.56A21.93 21.93 0 0 1 22 44a21.93 21.93 0 0 1-15.56-6.44A21.93 21.93 0 0 1 0 22c0-6.08 2.46-11.58 6.44-15.56A21.93 21.93 0 0 1 22 0c6.08 0 11.58 2.46 15.56 6.44A21.93 21.93 0 0 1 44 22Z" fill="#fff"/><g clip-path="url(#a)"><path d="M32 15.8c-.74.32-1.54.54-2.36.65.85-.51 1.5-1.3 1.8-2.27-.8.47-1.67.8-2.6 1a4.1 4.1 0 0 0-7 3.73 11.6 11.6 0 0 1-8.45-4.29 4.13 4.13 0 0 0 1.26 5.48c-.66-.01-1.3-.2-1.85-.5v.04c0 2 1.42 3.65 3.29 4.03a4.09 4.09 0 0 1-1.86.07 4.14 4.14 0 0 0 3.84 2.85A8.24 8.24 0 0 1 12 28.3a11.54 11.54 0 0 0 6.29 1.84c7.55 0 11.67-6.25 11.67-11.67 0-.18 0-.36-.02-.53.82-.58 1.5-1.3 2.06-2.13Z" fill="#AFB1B8"/></g><defs><clipPath id="a"><path fill="#fff" transform="translate(12 12)" d="M0 0h20v20H0z"/></clipPath></defs></svg>