<svg aria-hidden="true" style="position: absolute; width: 0; height: 0; overflow: hidden;" version="1.1" xmlns="http://www.w3.org/2000/svg" xmlns:xlink="http://www.w3.org/1999/xlink">
<defs>
<symbol id="icon-antenna-1" viewBox="0 0 32 32">
<path d="M30.773 22.098l-8.443-8.505 0.937-4.616c0.225 0.090 0.485 0.144 0.758 0.146h0.007c0.008 0 0.017 0 0.026 0 1.192 0 2.159-0.967 2.159-2.159s-0.967-2.159-2.159-2.159c-1.192 0-2.159 0.967-2.159 2.159 0 0.259 0.046 0.508 0.13 0.739l-0.005-0.015-4.96 0.606-8.091-8.133c-0.096-0.098-0.229-0.159-0.376-0.16h-0c-0.14 0.001-0.274 0.057-0.373 0.155l-1.512 1.504c-0.096 0.097-0.156 0.23-0.156 0.377s0.060 0.281 0.156 0.377v0l0.814 0.825c-1.143 2.062-1.816 4.522-1.816 7.139 0 4.106 1.656 7.824 4.336 10.525l-0.001-0.001c0.043 0.041 0.092 0.074 0.146 0.097-0.032 0.164-0.051 0.353-0.052 0.546v6.188h-6.4c-1.472 0.001-2.666 1.194-2.667 2.666v1.067c0 0.295 0.239 0.534 0.534 0.534h24.534c0.294 0 0.533-0.239 0.533-0.534v-1.067c-0.002-1.472-1.195-2.665-2.666-2.666h-6.4v-2.742c1.003 0.21 2.024 0.317 3.049 0.32 2.58-0.003 5.005-0.663 7.117-1.822l-0.077 0.039 0.818 0.823c0.099 0.101 0.235 0.159 0.376 0.16 0.14-0.001 0.274-0.057 0.373-0.155l1.512-1.504c0.096-0.097 0.156-0.23 0.156-0.377s-0.060-0.281-0.156-0.377v0zM23.28 6.233c0.193-0.192 0.459-0.31 0.752-0.31 0.589 0 1.067 0.478 1.067 1.066s-0.477 1.066-1.067 1.066c-0 0-0 0-0 0h-0.004c-0.587-0.003-1.061-0.479-1.061-1.066 0-0.295 0.12-0.563 0.314-0.756l0-0h-0.002zM22.024 9.737l-0.598 2.946-1.175-1.183 1.774-1.763zM21.419 8.835l-1.92 1.909-1.486-1.493 3.406-0.416zM24.004 28.8c0.884 0 1.6 0.716 1.6 1.6v0 0.534h-23.466v-0.534c0-0.884 0.716-1.6 1.6-1.6v0h20.267zM16.538 26.666v1.067h-5.334v-1.067h5.334zM11.204 25.6v-4.053c0-1.294 1.196-2.346 2.667-2.346s2.667 1.053 2.667 2.346v4.053h-5.334zM17.604 23.904v-2.357c0-1.882-1.675-3.413-3.733-3.413-0.017-0-0.038-0-0.058-0-1.353 0-2.54 0.707-3.213 1.771l-0.009 0.016c-2.36-2.482-3.812-5.846-3.812-9.55 0-2.314 0.567-4.496 1.569-6.414l-0.036 0.077 18.602 18.709c-1.823 0.947-3.979 1.502-6.266 1.502-1.079 0-2.128-0.124-3.136-0.357l0.093 0.018zM28.893 23.22l-21.057-21.181 0.754-0.752 7.935 7.98c0.004 0 0.006 0.007 0.010 0.010l13.114 13.191-0.757 0.752z"></path>
<path d="M13.876 20.267h-0.005c-0.001 0-0.002 0-0.002 0-0.884 0-1.6 0.716-1.6 1.6s0.715 1.599 1.597 1.6h0.005c0.001 0 0.001 0 0.002 0 0.884 0 1.6-0.716 1.6-1.6s-0.715-1.599-1.598-1.6h-0zM14.249 22.245c-0.096 0.096-0.229 0.155-0.376 0.155-0.295 0-0.534-0.239-0.534-0.534s0.238-0.533 0.532-0.533h0c0.293 0.001 0.531 0.239 0.531 0.533 0 0.148-0.060 0.282-0.157 0.378l-0 0h0.005z"></path>
</symbol>
<symbol id="icon-astronaut-1" viewBox="0 0 32 32">
<path d="M31.973 4.526c-0.059-0.192-0.229-0.334-0.43-0.366l-1.911-0.274-0.855-1.737c-0.178-0.361-0.777-0.361-0.955 0l-0.85 1.737-1.911 0.274c-0.262 0.038-0.46 0.261-0.46 0.53 0 0.151 0.063 0.287 0.163 0.385l0 0 1.385 1.344-0.325 1.902c-0.005 0.026-0.007 0.056-0.007 0.087 0 0.295 0.239 0.535 0.535 0.535 0.089 0 0.174-0.022 0.248-0.061l-0.003 0.001 1.71-0.896 1.705 0.896c0.072 0.039 0.158 0.062 0.25 0.062 0.295 0 0.535-0.239 0.535-0.535 0-0.032-0.003-0.063-0.008-0.093l0 0.003-0.329-1.902 1.385-1.349c0.146-0.137 0.197-0.352 0.137-0.549zM29.513 5.851c-0.128 0.123-0.183 0.297-0.155 0.471l0.192 1.115-1.001-0.526c-0.072-0.039-0.158-0.062-0.249-0.062s-0.177 0.023-0.252 0.064l0.003-0.001-1.001 0.526 0.192-1.115c0.032-0.174-0.027-0.347-0.151-0.471l-0.814-0.791 1.12-0.16c0.174-0.027 0.325-0.137 0.402-0.293l0.503-1.015 0.498 1.015c0.078 0.155 0.229 0.265 0.402 0.293l1.12 0.16-0.809 0.791zM26.135 20.526h-1.070v1.065h1.070v-1.070zM26.135 22.656h-1.070v1.065h1.070v-1.065zM27.2 21.591h-1.065v1.065h1.065v-1.065zM25.065 21.591h-1.065v1.065h1.065v-1.065zM22.4 26.391h-1.065v1.065h1.065v-1.065zM22.4 28.526h-1.065v1.065h1.065v-1.070zM23.465 27.456h-1.065v1.065h1.065v-1.065zM21.335 27.456h-1.070v1.065h1.070v-1.065zM16 24.256h-1.065v1.065h1.065v-1.065zM16 26.391h-1.065v1.065h1.065v-1.065zM17.065 25.326h-1.065v1.065h1.065v-1.070zM14.935 25.326h-1.070v1.065h1.070v-1.070zM5.865 6.126h-1.065v1.065h1.065v-1.070zM5.865 8.256h-1.065v1.065h1.065v-1.065zM6.935 7.191h-1.070v1.065h1.070v-1.065zM4.8 7.191h-1.065v1.065h1.065v-1.065z"></path>
<path d="M24.713 14.158c-0.28-0.376-0.699-0.636-1.179-0.703l-0.009-0.001c-0.076-0.012-0.164-0.018-0.253-0.018-0.411 0-0.789 0.139-1.090 0.373l0.004-0.003-1.248 0.96-1.902 1.417-1.358-0.539c2.423-1.088 4.114-3.506 4.114-6.322 0-3.822-3.122-6.93-6.962-6.93s-6.958 3.109-6.958 6.93c0 1.39 0.411 2.674 1.12 3.762l-2.77-0.027-0.023 0.005c-0.055 0-0.105 0.014-0.155 0.032l-0.037 0.014-0.023 0.005-3.232 1.6-1.893 0.91c-0.506 0.32-0.837 0.877-0.837 1.511 0 0.985 0.798 1.783 1.783 1.783 0.303 0 0.588-0.075 0.838-0.209l-0.010 0.005 1.385-0.736 2.263-1.17 1.358-0.009-6.779 6.757c-0.306 0.299-0.496 0.716-0.496 1.177s0.19 0.878 0.495 1.177l0 0c0.302 0.302 0.719 0.488 1.179 0.488s0.878-0.187 1.179-0.488v0l1.307-1.312 1.742-1.298 0.901 0.896-1.76 1.755-1.339 1.33c-0.307 0.299-0.498 0.717-0.498 1.179s0.191 0.88 0.498 1.179l0 0c0.302 0.302 0.719 0.488 1.179 0.488s0.878-0.187 1.179-0.488v0l3.483-3.47 1.015-1.006h-0.005l0.018-0.018 5.166-5.659 3.474 0.498c0.019 0.003 0.041 0.004 0.063 0.004 0.071 0 0.139-0.015 0.201-0.042l-0.003 0.001 0.050-0.023c0.018-0.009 0.041-0.014 0.059-0.027l3.214-2.13 0.027-0.032 0.041-0.023 1.271-1.193c0.347-0.326 0.562-0.788 0.562-1.3 0-0.401-0.132-0.771-0.355-1.068l0.003 0.005zM2.13 17.769c-0.109 0.071-0.243 0.113-0.386 0.113-0.396 0-0.716-0.321-0.716-0.716 0-0.252 0.13-0.474 0.327-0.602l0.003-0.002 1.317-0.631 0.315 0.923 0.133 0.389-0.992 0.526zM5.627 15.941l-1.55 0.8-0.256-0.741-0.183-0.535 2.030-1.006-0.041 1.486zM20.727 9.326c0 0.919-0.219 1.783-0.599 2.56l-4.183-1.897c-0.042-0.576-0.341-1.074-0.78-1.386l-0.006-0.004 1.463-4.859c2.377 0.754 4.105 2.971 4.105 5.586zM8.937 9.326c0.011-3.243 2.643-5.868 5.888-5.868 0.266 0 0.528 0.018 0.784 0.052l-0.030-0.003-1.435 4.754-0.055-0.005c0 0 0 0-0 0-1.032 0-1.869 0.834-1.874 1.865v0.001c0.012 1.026 0.847 1.852 1.874 1.852 0.687 0 1.287-0.369 1.614-0.92l0.005-0.009 3.858 1.755c-1.085 1.458-2.804 2.393-4.741 2.393-3.245 0-5.878-2.624-5.893-5.866v-0.001zM14.894 10.126c0 0.446-0.361 0.807-0.807 0.807s-0.807-0.361-0.807-0.807v0c0-0.439 0.366-0.8 0.809-0.8s0.805 0.361 0.805 0.8zM2.469 25.147c-0.233 0.233-0.617 0.229-0.855 0-0.109-0.108-0.177-0.257-0.177-0.423s0.068-0.315 0.177-0.423l0.96-0.96 0.855 0.85-0.965 0.951zM5.682 28.878c-0.233 0.238-0.617 0.238-0.855 0-0.108-0.108-0.174-0.256-0.174-0.421s0.067-0.313 0.174-0.421v0l0.96-0.96 0.407 0.402 0.448 0.448-0.96 0.951zM9.166 25.413l-1.769 1.76-0.85-0.85 1.765-1.751c0.041-0.046 0.064-0.091 0.091-0.137l0.023-0.046c0.018-0.037 0.023-0.082 0.027-0.123 0-0.027 0.014-0.046 0.014-0.073 0-0.037-0.014-0.073-0.018-0.105l-0.018-0.096c-0.023-0.050-0.055-0.091-0.091-0.137l-0.027-0.041-1.609-1.6c-0.014-0.018-0.037-0.023-0.055-0.037-0.032-0.023-0.059-0.046-0.091-0.059-0.026-0.012-0.056-0.023-0.088-0.031l-0.003-0.001c-0.029-0.009-0.063-0.015-0.099-0.018l-0.002-0h-0.096l-0.105 0.023c-0.032 0.009-0.064 0.027-0.091 0.046-0.023 0.009-0.046 0.014-0.064 0.027l-1.774 1.326-0.901-0.901 2.4-2.386 4.361 4.293-0.928 0.914zM15.982 18.395h-0.046c-0.007-0-0.016-0.001-0.025-0.001-0.137 0-0.262 0.052-0.355 0.138l0-0-0.041 0.032-4.699 5.143-4.325-4.251 2.834-2.821c0.098-0.097 0.158-0.231 0.158-0.379 0-0.295-0.239-0.535-0.535-0.535-0.002 0-0.005 0-0.007 0h0l-2.217 0.014 0.027-1.609 3.104 0.027c1.263 1.296 3.026 2.099 4.977 2.099 0.455 0 0.899-0.044 1.33-0.127l-0.044 0.007c0.037 0.032 0.078 0.064 0.128 0.087l2.409 0.96 0.151 0.759 0.183 0.882-3.008-0.425zM20.023 18.574l-0.311-1.559 1.445-1.079 0.379 0.503 0.567 0.754-2.080 1.381zM23.781 15.739l-0.841 0.786-0.928-1.234 0.827-0.64c0.122-0.093 0.276-0.149 0.443-0.149 0.037 0 0.074 0.003 0.11 0.008l-0.004-0.001c0.352 0.050 0.62 0.349 0.62 0.711 0 0.206-0.087 0.392-0.226 0.523l-0 0z"></path>
<path d="M13.6 18.546l-2.139-2.135c-0.097-0.096-0.23-0.156-0.377-0.156s-0.28 0.059-0.377 0.156l0-0-2.144 2.135c-0.096 0.097-0.156 0.23-0.156 0.377s0.059 0.28 0.156 0.377l-0-0 2.144 2.135c0.097 0.096 0.23 0.156 0.377 0.156s0.28-0.059 0.377-0.156l-0 0 2.139-2.135c0.096-0.097 0.156-0.23 0.156-0.377s-0.059-0.28-0.156-0.377l0 0zM11.086 20.302l-1.394-1.376 1.385-1.381 1.39 1.381-1.39 1.381zM17.166 5.074l-0.261 1.033c0.073 0.018 1.737 0.453 1.737 2.149h1.070c0-2.016-1.669-2.967-2.546-3.186zM19.712 9.326h-1.070v1.065h1.070v-1.070z"></path>
</symbol>
<symbol id="icon-clock-1" viewBox="0 0 32 32">
<path d="M31.296 15.301c-0.001-8.452-6.853-15.303-15.305-15.303s-15.305 6.852-15.305 15.305c0 6.79 4.422 12.548 10.543 14.55l0.108 0.031c0.057 0.017 0.123 0.027 0.191 0.027 0.125 0 0.242-0.034 0.343-0.093l-0.003 0.002c0.137-0.082 0.233-0.206 0.283-0.357l3.863-12.251c1.048-0.009 1.895-0.861 1.895-1.911 0-1.055-0.856-1.911-1.911-1.911-0.3 0-0.584 0.069-0.836 0.192l0.011-0.005-5.102-5.106c-0.112-0.098-0.259-0.158-0.421-0.158-0.353 0-0.64 0.287-0.64 0.64 0 0.16 0.059 0.307 0.156 0.419l-0.001-0.001 5.106 5.111c-0.121 0.241-0.192 0.526-0.192 0.826 0 0.601 0.283 1.136 0.723 1.479l0.004 0.003-3.685 11.671c-5.408-2.035-9.186-7.165-9.186-13.177 0-7.756 6.287-14.043 14.043-14.043s14.043 6.287 14.043 14.043c0 5.688-3.381 10.586-8.243 12.793l-0.088 0.036-0.398-1.874c-0.066-0.289-0.32-0.502-0.625-0.502-0.162 0-0.31 0.060-0.423 0.159l0.001-0.001-3.84 3.429c-0.127 0.117-0.207 0.285-0.207 0.471 0 0.282 0.182 0.521 0.435 0.607l0.005 0.001 4.901 1.563c0.057 0.019 0.123 0.029 0.192 0.029 0.353 0 0.64-0.287 0.64-0.64 0-0.046-0.005-0.091-0.014-0.134l0.001 0.004-0.393-1.838c5.529-2.374 9.33-7.772 9.33-14.057 0-0.011 0-0.022-0-0.034v0.002zM15.991 14.661c0.353 0 0.64 0.287 0.64 0.64s-0.287 0.64-0.64 0.64v0c-0.353 0-0.64-0.287-0.64-0.64s0.287-0.64 0.64-0.64v0zM18.094 29.527l2.185-1.947 0.599 2.839-2.789-0.891z"></path>
<path d="M15.355 3.186v1.275c-0.001 0.016-0.002 0.035-0.002 0.054 0 0.353 0.287 0.64 0.64 0.64s0.64-0.287 0.64-0.64c0-0.019-0.001-0.038-0.002-0.056l0 0.002v-1.28c0-0.353-0.287-0.64-0.64-0.64s-0.64 0.287-0.64 0.64v0zM3.877 14.665c-0.329 0.029-0.586 0.303-0.586 0.638s0.257 0.609 0.584 0.638l0.002 0h1.275c0.353 0 0.64-0.287 0.64-0.64s-0.287-0.64-0.64-0.64h-1.28zM28.11 15.941c0.353 0 0.64-0.287 0.64-0.64s-0.287-0.64-0.64-0.64h-1.28c-0.353 0-0.64 0.287-0.64 0.64s0.287 0.64 0.64 0.64h1.28z"></path>
</symbol>
<symbol id="icon-diagram-1" viewBox="0 0 32 32">
<path d="M14.926 14.967h1.065v4.795h-1.065v-4.8zM19.191 17.097h1.065v2.665h-1.065v-2.665zM10.661 18.697h1.065v1.065h-1.065v-1.065zM7.461 18.162h1.070v1.6h-1.070v-1.6z"></path>
<path d="M1.6 28.293h25.586c0.884 0 1.6-0.716 1.6-1.6v0-2.135c0-0.884-0.716-1.6-1.6-1.6v0h-0.535v-13.285l3.031-2.871c0.207 0.104 0.45 0.164 0.708 0.164 0.889 0 1.609-0.72 1.609-1.609s-0.72-1.609-1.609-1.609c-0.889 0-1.609 0.72-1.609 1.609 0 0.247 0.056 0.482 0.156 0.691l-0.004-0.010-2.281 2.162v-1.23c0-0.884-0.716-1.6-1.6-1.6v0h-21.321c-0.884 0-1.6 0.716-1.6 1.6v0 15.995h-0.53c-0.884 0-1.6 0.716-1.6 1.6v0 2.13c0 0.884 0.716 1.6 1.6 1.6v0zM30.386 4.837c0.015-0.001 0.032-0.002 0.049-0.002 0.295 0 0.535 0.239 0.535 0.535s-0.239 0.535-0.535 0.535c-0.017 0-0.035-0.001-0.052-0.002l0.002 0c-0.273-0.026-0.485-0.255-0.485-0.533s0.212-0.506 0.483-0.532l0.002-0zM3.2 6.967c0-0.293 0.238-0.53 0.53-0.53h21.321c0.297 0 0.535 0.238 0.535 0.53v2.24l-1.065 1.015v-2.185c0-0.297-0.238-0.535-0.535-0.535h-19.186c-0.293 0-0.53 0.238-0.53 0.535v13.326c0 0.293 0.238 0.53 0.53 0.53h19.191c0.297 0 0.535-0.238 0.535-0.53v-9.673l1.065-1.010v12.283h-22.391v-15.995zM8 13.897c-0.004-0-0.009-0-0.013-0-0.884 0-1.6 0.716-1.6 1.6s0.716 1.6 1.6 1.6c0.434 0 0.827-0.173 1.115-0.453l-0 0 1.856 0.933c0.215 0.105 0.475 0.055 0.635-0.123l3.936-4.434 3.872 2.903c0.21 0.155 0.503 0.137 0.686-0.037l3.369-3.191v8.137h-18.126v-12.27h18.126v2.661l-3.771 3.57-3.904-2.926c-0.088-0.067-0.2-0.107-0.322-0.107-0.159 0-0.302 0.070-0.4 0.18l-0 0.001-3.991 4.494-1.495-0.75c0.014-0.064 0.018-0.128 0.023-0.192 0-0.884-0.716-1.6-1.6-1.6v0zM8.53 15.497c0 0.295-0.239 0.535-0.535 0.535s-0.535-0.239-0.535-0.535v0c0-0.295 0.239-0.535 0.535-0.535s0.535 0.239 0.535 0.535v0zM11.73 24.027h5.321v0.53c0 0.297-0.238 0.535-0.53 0.535h-4.265c-0.293 0-0.535-0.238-0.535-0.535v-0.53zM1.061 24.558c0-0.293 0.238-0.53 0.535-0.53h9.061v0.53c0 0.884 0.716 1.6 1.6 1.6v0h4.265c0.884 0 1.6-0.716 1.6-1.6v0-0.53h9.061c0.293 0 0.53 0.238 0.53 0.53v2.135c0 0.293-0.238 0.53-0.53 0.53h-25.582c-0.297 0-0.535-0.238-0.535-0.53v-2.135z"></path>
</symbol>
<symbol id="icon-Ellipse" viewBox="0 0 32 32">
<path fill="#fff" style="fill: var(--color3, #fff)" d="M32 16c0 4.422-1.789 8.422-4.684 11.316-2.887 2.894-6.88 4.684-11.29 4.684-0.009 0-0.019 0-0.028-0h0.001c-0.008 0-0.017 0-0.026 0-4.41 0-8.403-1.79-11.29-4.683l-0-0c-2.894-2.887-4.684-6.88-4.684-11.29 0-0.009 0-0.019 0-0.028v0.001c0-4.422 1.789-8.422 4.684-11.316 2.887-2.894 6.88-4.684 11.29-4.684 0.009 0 0.019 0 0.028 0h-0.001c4.422 0 8.422 1.789 11.316 4.684 2.894 2.887 4.684 6.88 4.684 11.29 0 0.009 0 0.019-0 0.028v-0.001z"></path>
<path fill="#afb1b8" style="fill: var(--color4, #afb1b8)" d="M23.273 11.491c-0.538 0.233-1.12 0.393-1.716 0.473 0.618-0.371 1.091-0.945 1.309-1.651-0.582 0.342-1.215 0.582-1.891 0.727-0.546-0.59-1.325-0.958-2.19-0.958-1.647 0-2.982 1.335-2.982 2.982 0 0.244 0.029 0.482 0.085 0.709l-0.004-0.020c-2.485-0.126-4.671-1.309-6.133-3.105l-0.012-0.015c-0.252 0.43-0.401 0.948-0.401 1.5 0 1.029 0.518 1.938 1.307 2.479l0.010 0.007c-0.48-0.007-0.945-0.145-1.345-0.364v0.029c0 1.455 1.033 2.655 2.393 2.931-0.235 0.067-0.506 0.106-0.785 0.106-0.201 0-0.397-0.020-0.586-0.058l0.019 0.003c0.399 1.192 1.493 2.042 2.789 2.073l0.004 0c-1.010 0.801-2.303 1.285-3.709 1.285-0.249 0-0.494-0.015-0.735-0.045l0.029 0.003c1.284 0.839 2.857 1.338 4.547 1.338 0.010 0 0.020-0 0.029-0h-0.002c5.491 0 8.487-4.545 8.487-8.487 0-0.131 0-0.262-0.015-0.385 0.596-0.422 1.091-0.945 1.498-1.549z"></path>
</symbol>
<symbol id="icon-Ellipse-1" viewBox="0 0 32 32">
<path fill="#fff" style="fill: var(--color3, #fff)" d="M32 16c0 4.422-1.789 8.422-4.684 11.316-2.887 2.894-6.88 4.684-11.29 4.684-0.009 0-0.019 0-0.028-0h0.001c-0.008 0-0.017 0-0.026 0-4.41 0-8.403-1.79-11.29-4.683l-0-0c-2.894-2.887-4.684-6.88-4.684-11.29 0-0.009 0-0.019 0-0.028v0.001c0-4.422 1.789-8.422 4.684-11.316 2.887-2.894 6.88-4.684 11.29-4.684 0.009 0 0.019 0 0.028 0h-0.001c4.422 0 8.422 1.789 11.316 4.684 2.894 2.887 4.684 6.88 4.684 11.29 0 0.009 0 0.019-0 0.028v-0.001z"></path>
<path fill="#afb1b8" style="fill: var(--color4, #afb1b8)" d="M18.422 11.142h1.331v-2.313c-0.233-0.029-1.018-0.102-1.935-0.102-1.92 0-3.229 1.207-3.229 3.418v2.036h-2.109v2.582h2.109v6.509h2.589v-6.502h2.029l0.32-2.589h-2.349v-1.782c0-0.749 0.204-1.258 1.244-1.258z"></path>
</symbol>
<symbol id="icon-Ellipse-2" viewBox="0 0 32 32">
<path fill="#fff" style="fill: var(--color3, #fff)" d="M32 16c0 4.422-1.789 8.422-4.684 11.316-2.887 2.894-6.88 4.684-11.29 4.684-0.009 0-0.019 0-0.028-0h0.001c-0.008 0-0.017 0-0.026 0-4.41 0-8.403-1.79-11.29-4.683l-0-0c-2.894-2.887-4.684-6.88-4.684-11.29 0-0.009 0-0.019 0-0.028v0.001c0-4.422 1.789-8.422 4.684-11.316 2.887-2.894 6.88-4.684 11.29-4.684 0.009 0 0.019 0 0.028 0h-0.001c4.422 0 8.422 1.789 11.316 4.684 2.894 2.887 4.684 6.88 4.684 11.29 0 0.009 0 0.019-0 0.028v-0.001z"></path>
<path fill="#afb1b8" style="fill: var(--color4, #afb1b8)" d="M23.273 23.273v-5.338c0-2.604-0.56-4.618-3.615-4.618-0.035-0.001-0.075-0.002-0.116-0.002-1.161 0-2.176 0.626-2.727 1.558l-0.008 0.015h-0.044v-1.324h-2.895v9.709h3.018v-4.807c0-1.265 0.24-2.495 1.804-2.495 1.549 0 1.571 1.447 1.571 2.575v4.727h3.011zM8.967 13.564h3.018v9.709h-3.018v-9.709zM10.473 8.727c-0.964 0-1.745 0.781-1.745 1.745v0c0 0.002 0 0.005 0 0.007 0 0.967 0.78 1.752 1.745 1.76h0.001c0.967 0 1.745-0.8 1.745-1.767 0-0.964-0.781-1.745-1.745-1.745v0z"></path>
</symbol>
<symbol id="icon-Ellipse-3" viewBox="0 0 32 32">
<path fill="#fff" style="fill: var(--color3, #fff)" d="M32 16c0 4.422-1.789 8.422-4.684 11.316-2.887 2.894-6.88 4.684-11.29 4.684-0.009 0-0.019 0-0.028-0h0.001c-0.008 0-0.017 0-0.026 0-4.41 0-8.403-1.79-11.29-4.683l-0-0c-2.894-2.887-4.684-6.88-4.684-11.29 0-0.009 0-0.019 0-0.028v0.001c0-4.422 1.789-8.422 4.684-11.316 2.887-2.894 6.88-4.684 11.29-4.684 0.009 0 0.019 0 0.028 0h-0.001c4.422 0 8.422 1.789 11.316 4.684 2.894 2.887 4.684 6.88 4.684 11.29 0 0.009 0 0.019-0 0.028v-0.001z"></path>
<path fill="#afb1b8" style="fill: var(--color4, #afb1b8)" d="M23.258 13.004c-0.011-0.638-0.133-1.243-0.347-1.804l0.012 0.036c-0.194-0.504-0.481-0.934-0.843-1.287l-0.001-0.001c-0.364-0.364-0.8-0.655-1.287-0.836-0.523-0.204-1.129-0.328-1.761-0.342l-0.006-0c-0.663-0.032-1.44-0.050-2.221-0.050-0.273 0-0.545 0.002-0.817 0.007l0.041-0.001c-1.978 0-2.225 0.007-2.996 0.044-0.778 0.036-1.309 0.16-1.767 0.335-0.487 0.189-0.924 0.473-1.287 0.844-0.371 0.364-0.655 0.8-0.844 1.287-0.201 0.524-0.323 1.13-0.334 1.762l-0 0.005c-0.032 0.663-0.050 1.44-0.050 2.221 0 0.273 0.002 0.545 0.007 0.816l-0.001-0.041c0 1.978 0 2.225 0.036 2.996 0.014 0.638 0.138 1.244 0.354 1.804l-0.012-0.036c0.182 0.487 0.473 0.924 0.844 1.287 0.364 0.371 0.8 0.655 1.287 0.844 0.458 0.175 0.989 0.298 1.76 0.335 0.778 0.036 1.018 0.044 2.996 0.044s2.225-0.007 3.004-0.044c0.635-0.012 1.238-0.134 1.796-0.347l-0.036 0.012c0.982-0.387 1.744-1.149 2.122-2.106l0.009-0.025c0.175-0.465 0.305-0.989 0.335-1.767 0.036-0.771 0.044-1.018 0.044-2.996 0-1.971 0-2.218-0.036-2.996zM21.949 18.945c-0.029 0.705-0.145 1.091-0.247 1.345-0.251 0.637-0.745 1.131-1.365 1.376l-0.016 0.006c-0.255 0.102-0.647 0.218-1.353 0.247-0.764 0.036-0.996 0.044-2.938 0.044-0.211 0.003-0.46 0.005-0.71 0.005-0.784 0-1.563-0.018-2.338-0.052l0.11 0.004c-0.713-0.029-1.091-0.145-1.345-0.247-0.328-0.123-0.608-0.309-0.836-0.545l-0.001-0.001c-0.235-0.227-0.421-0.504-0.54-0.814l-0.005-0.015c-0.153-0.402-0.243-0.866-0.247-1.351v-0.002c-0.031-0.665-0.049-1.445-0.049-2.229 0-0.249 0.002-0.498 0.005-0.747l-0 0.038c0-1.942 0.007-2.175 0.044-2.938 0.029-0.713 0.145-1.091 0.247-1.353 0.116-0.313 0.298-0.596 0.545-0.829 0.229-0.236 0.508-0.422 0.821-0.54l0.015-0.005c0.255-0.102 0.64-0.218 1.353-0.247 0.764-0.036 0.996-0.044 2.931-0.044 1.949 0 2.182 0 2.938 0.044 0.713 0.029 1.091 0.145 1.353 0.247 0.313 0.116 0.604 0.298 0.836 0.545 0.24 0.233 0.429 0.516 0.545 0.829 0.095 0.262 0.218 0.647 0.247 1.353 0.036 0.764 0.044 0.996 0.044 2.938s-0.007 2.167-0.044 2.938z"></path>
<path fill="#afb1b8" style="fill: var(--color4, #afb1b8)" d="M16.029 12.262c-2.065 0-3.738 1.674-3.738 3.738s1.674 3.738 3.738 3.738v0c2.065 0 3.738-1.674 3.738-3.738s-1.674-3.738-3.738-3.738v0zM16.029 18.422c-1.338 0-2.422-1.084-2.422-2.422s1.084-2.422 2.422-2.422v0c1.338 0 2.422 1.084 2.422 2.422s-1.084 2.422-2.422 2.422v0zM20.785 12.116c0 0.482-0.391 0.873-0.873 0.873s-0.873-0.391-0.873-0.873v0c0-0.482 0.391-0.873 0.873-0.873s0.873 0.391 0.873 0.873v0z"></path>
</symbol>
<symbol id="icon-Ellipse-4" viewBox="0 0 32 32">
<path fill="#fff" style="fill: var(--color3, #fff)" d="M32 16c0 4.422-1.789 8.422-4.684 11.316-2.887 2.894-6.88 4.684-11.29 4.684-0.009 0-0.019 0-0.028-0h0.001c-0.008 0-0.017 0-0.026 0-4.41 0-8.403-1.79-11.29-4.683l-0-0c-2.894-2.887-4.684-6.88-4.684-11.29 0-0.009 0-0.019 0-0.028v0.001c0-4.422 1.789-8.422 4.684-11.316 2.887-2.894 6.88-4.684 11.29-4.684 0.009 0 0.019 0 0.028 0h-0.001c4.422 0 8.422 1.789 11.316 4.684 2.894 2.887 4.684 6.88 4.684 11.29 0 0.009 0 0.019-0 0.028v-0.001z"></path>
<path fill="#afb1b8" style="fill: var(--color4, #afb1b8)" d="M23.273 11.491c-0.538 0.233-1.12 0.393-1.716 0.473 0.618-0.371 1.091-0.945 1.309-1.651-0.582 0.342-1.215 0.582-1.891 0.727-0.546-0.59-1.325-0.958-2.19-0.958-1.647 0-2.982 1.335-2.982 2.982 0 0.244 0.029 0.482 0.085 0.709l-0.004-0.020c-2.485-0.126-4.671-1.309-6.133-3.105l-0.012-0.015c-0.252 0.43-0.401 0.948-0.401 1.5 0 1.029 0.518 1.938 1.307 2.479l0.010 0.007c-0.48-0.007-0.945-0.145-1.345-0.364v0.029c0 1.455 1.033 2.655 2.393 2.931-0.235 0.067-0.506 0.106-0.785 0.106-0.201 0-0.397-0.020-0.586-0.058l0.019 0.003c0.399 1.192 1.493 2.042 2.789 2.073l0.004 0c-1.010 0.801-2.303 1.285-3.709 1.285-0.249 0-0.494-0.015-0.735-0.045l0.029 0.003c1.284 0.839 2.857 1.338 4.547 1.338 0.010 0 0.020-0 0.029-0h-0.002c5.491 0 8.487-4.545 8.487-8.487 0-0.131 0-0.262-0.015-0.385 0.596-0.422 1.091-0.945 1.498-1.549z"></path>
</symbol>
<symbol id="icon-Ellipse-5" viewBox="0 0 32 32">
<path fill="#fff" style="fill: var(--color3, #fff)" d="M32 16c0 4.422-1.789 8.422-4.684 11.316-2.887 2.894-6.88 4.684-11.29 4.684-0.009 0-0.019 0-0.028-0h0.001c-0.008 0-0.017 0-0.026 0-4.41 0-8.403-1.79-11.29-4.683l-0-0c-2.894-2.887-4.684-6.88-4.684-11.29 0-0.009 0-0.019 0-0.028v0.001c0-4.422 1.789-8.422 4.684-11.316 2.887-2.894 6.88-4.684 11.29-4.684 0.009 0 0.019 0 0.028 0h-0.001c4.422 0 8.422 1.789 11.316 4.684 2.894 2.887 4.684 6.88 4.684 11.29 0 0.009 0 0.019-0 0.028v-0.001z"></path>
<path fill="#afb1b8" style="fill: var(--color4, #afb1b8)" d="M18.422 11.142h1.331v-2.313c-0.233-0.029-1.018-0.102-1.935-0.102-1.92 0-3.229 1.207-3.229 3.418v2.036h-2.109v2.582h2.109v6.509h2.589v-6.502h2.029l0.32-2.589h-2.349v-1.782c0-0.749 0.204-1.258 1.244-1.258z"></path>
</symbol>
<symbol id="icon-Ellipse-6" viewBox="0 0 32 32">
<path fill="#fff" style="fill: var(--color3, #fff)" d="M32 16c0 4.422-1.789 8.422-4.684 11.316-2.887 2.894-6.88 4.684-11.29 4.684-0.009 0-0.019 0-0.028-0h0.001c-0.008 0-0.017 0-0.026 0-4.41 0-8.403-1.79-11.29-4.683l-0-0c-2.894-2.887-4.684-6.88-4.684-11.29 0-0.009 0-0.019 0-0.028v0.001c0-4.422 1.789-8.422 4.684-11.316 2.887-2.894 6.88-4.684 11.29-4.684 0.009 0 0.019 0 0.028 0h-0.001c4.422 0 8.422 1.789 11.316 4.684 2.894 2.887 4.684 6.88 4.684 11.29 0 0.009 0 0.019-0 0.028v-0.001z"></path>
<path fill="#afb1b8" style="fill: var(--color4, #afb1b8)" d="M23.273 23.273v-5.338c0-2.604-0.56-4.618-3.615-4.618-0.035-0.001-0.075-0.002-0.116-0.002-1.161 0-2.176 0.626-2.727 1.558l-0.008 0.015h-0.044v-1.324h-2.895v9.709h3.018v-4.807c0-1.265 0.24-2.495 1.804-2.495 1.549 0 1.571 1.447 1.571 2.575v4.727h3.011zM8.967 13.564h3.018v9.709h-3.018v-9.709zM10.473 8.727c-0.964 0-1.745 0.781-1.745 1.745v0c0 0.002 0 0.005 0 0.007 0 0.967 0.78 1.752 1.745 1.76h0.001c0.967 0 1.745-0.8 1.745-1.767 0-0.964-0.781-1.745-1.745-1.745v0z"></path>
</symbol>
<symbol id="icon-envelope" viewBox="0 0 43 32">
<path d="M38.667 0h-34.667c-2.213 0-4 1.787-4 4v24c0 2.213 1.787 4 4 4h34.667c2.213 0 4-1.787 4-4v-24c0-2.213-1.787-4-4-4zM38.667 2.667c0.003-0 0.007-0 0.011-0 0.189 0 0.368 0.039 0.531 0.11l-0.009-0.003-17.867 15.467-17.867-15.467c0.154-0.067 0.334-0.107 0.523-0.107 0.004 0 0.007 0 0.011 0h34.666zM38.667 29.333h-34.667c-0.736 0-1.333-0.597-1.333-1.333v0-22.4l17.787 15.413c0.234 0.206 0.542 0.332 0.88 0.332s0.646-0.126 0.881-0.333l-0.001 0.001 17.787-15.413v22.4c0 0.736-0.597 1.333-1.333 1.333v0z"></path>
</symbol>
<symbol id="icon-envelope-1" viewBox="0 0 43 32">
<path fill="#2196f3" style="fill: var(--color2, #2196f3)" d="M38.667 0h-34.667c-2.213 0-4 1.787-4 4v24c0 2.213 1.787 4 4 4h34.667c2.213 0 4-1.787 4-4v-24c0-2.213-1.787-4-4-4zM38.667 2.667c0.003-0 0.007-0 0.011-0 0.189 0 0.368 0.039 0.531 0.11l-0.009-0.003-17.867 15.467-17.867-15.467c0.154-0.067 0.334-0.107 0.523-0.107 0.004 0 0.007 0 0.011 0h34.666zM38.667 29.333h-34.667c-0.736 0-1.333-0.597-1.333-1.333v0-22.4l17.787 15.413c0.234 0.206 0.542 0.332 0.88 0.332s0.646-0.126 0.881-0.333l-0.001 0.001 17.787-15.413v22.4c0 0.736-0.597 1.333-1.333 1.333v0z"></path>
</symbol>
<symbol id="icon-instagram-2" viewBox="0 0 32 32">
<path fill="#afb1b8" style="fill: var(--color4, #afb1b8)" d="M31.968 9.408c-0.024-1.403-0.292-2.735-0.763-3.968l0.027 0.080c-0.427-1.109-1.058-2.054-1.854-2.83l-0.002-0.002c-0.8-0.8-1.76-1.44-2.832-1.84-1.151-0.448-2.483-0.721-3.875-0.752l-0.013-0c-1.458-0.070-3.167-0.109-4.885-0.109-0.6 0-1.199 0.005-1.797 0.014l0.090-0.001c-4.352 0-4.896 0.016-6.592 0.096-1.712 0.064-2.88 0.352-3.888 0.736-1.072 0.416-2.032 1.040-2.832 1.856-0.816 0.8-1.44 1.76-1.856 2.832-0.443 1.152-0.711 2.485-0.736 3.877l-0 0.011c-0.070 1.458-0.109 3.167-0.109 4.885 0 0.6 0.005 1.199 0.014 1.797l-0.001-0.090c0 4.352 0 4.896 0.080 6.592 0.030 1.405 0.303 2.737 0.779 3.968l-0.027-0.080c0.4 1.072 1.040 2.032 1.856 2.832 0.8 0.816 1.76 1.44 2.832 1.856 1.008 0.384 2.176 0.656 3.872 0.736 1.712 0.080 2.24 0.096 6.592 0.096s4.896-0.016 6.608-0.096c1.397-0.026 2.724-0.294 3.952-0.763l-0.080 0.027c2.16-0.851 3.837-2.528 4.669-4.633l0.019-0.055c0.384-1.024 0.672-2.176 0.736-3.888 0.080-1.696 0.096-2.24 0.096-6.592 0-4.336 0-4.88-0.080-6.592zM29.088 22.48c-0.064 1.552-0.32 2.4-0.544 2.96-0.552 1.401-1.639 2.488-3.004 3.027l-0.036 0.013c-0.56 0.224-1.424 0.48-2.976 0.544-1.68 0.080-2.192 0.096-6.464 0.096-0.465 0.007-1.013 0.011-1.562 0.011-1.724 0-3.439-0.039-5.144-0.116l0.242 0.009c-1.568-0.064-2.4-0.32-2.96-0.544-0.722-0.271-1.337-0.68-1.839-1.199l-0.001-0.001c-0.518-0.5-0.926-1.108-1.189-1.79l-0.011-0.034c-0.336-0.884-0.535-1.905-0.544-2.972l-0-0.004c-0.068-1.463-0.107-3.179-0.107-4.903 0-0.549 0.004-1.097 0.012-1.643l-0.001 0.083c0-4.272 0.016-4.784 0.096-6.464 0.064-1.568 0.32-2.4 0.544-2.976 0.256-0.688 0.656-1.312 1.2-1.824 0.504-0.519 1.118-0.928 1.806-1.189l0.034-0.011c0.56-0.224 1.408-0.48 2.976-0.544 1.68-0.080 2.192-0.096 6.448-0.096 4.288 0 4.8 0 6.464 0.096 1.568 0.064 2.4 0.32 2.976 0.544 0.688 0.256 1.328 0.656 1.84 1.2 0.528 0.512 0.944 1.136 1.2 1.824 0.208 0.576 0.48 1.424 0.544 2.976 0.080 1.68 0.096 2.192 0.096 6.464s-0.016 4.768-0.096 6.464z"></path>
<path fill="#afb1b8" style="fill: var(--color4, #afb1b8)" d="M16.064 7.776c-4.542 0-8.224 3.682-8.224 8.224s3.682 8.224 8.224 8.224v0c4.542 0 8.224-3.682 8.224-8.224s-3.682-8.224-8.224-8.224v0zM16.064 21.328c-2.943 0-5.328-2.385-5.328-5.328s2.385-5.328 5.328-5.328v0c2.943 0 5.328 2.385 5.328 5.328s-2.385 5.328-5.328 5.328v0zM26.528 7.456c0 1.060-0.86 1.92-1.92 1.92s-1.92-0.86-1.92-1.92v0c0-1.060 0.86-1.92 1.92-1.92s1.92 0.86 1.92 1.92v0z"></path>
</symbol>
<symbol id="icon-Logo" viewBox="0 0 56 32">
<path d="M26.282 3.462h-0.577c-0.102-0.003-0.221-0.005-0.341-0.005s-0.239 0.002-0.358 0.005l0.018-0c-1.941 0.21-3.829 0.682-5.561 1.469l-0.262 0.105v11.646l0.525-0.21c1.714-0.581 3.691-0.942 5.744-0.996l0.027-0.001v1.574h-0.577c-2.652 0.135-5.107 0.857-7.276 2.038l0.089-0.044v-14.951c2.239-1.319 4.933-2.098 7.809-2.098 0.021 0 0.042 0 0.063 0h0.259c0.981 0.026 1.92 0.139 2.829 0.333l-0.101-0.018v1.469c-0.566-0.131-1.231-0.225-1.911-0.261l-0.030-0.001h-0.367zM28.905 5.036h1.049c0.016 0 0.034 0 0.053 0 2.883 0 5.594-0.739 7.954-2.037l-0.086 0.043v14.636c-2.219 1.282-4.881 2.039-7.72 2.039-1.093 0-2.159-0.112-3.188-0.325l0.101 0.018v-14.689c0.547 0.127 1.194 0.22 1.855 0.261l0.034 0.002zM36.354 5.141l-0.525 0.157-1.469 0.472c-1.324 0.349-2.844 0.549-4.411 0.549-0.33 0-0.659-0.009-0.985-0.027l0.045 0.002h-0.42v11.908h0.315l1.049 0.105c2.281-0.022 4.426-0.582 6.322-1.558l-0.079 0.037 0.21-0.105v-11.541z"></path>
<path d="M18.728 24.131c-0.131-0.147-0.315-0.245-0.522-0.262l-0.003-0h-0.367l-0.262 0.21-0.21 0.262v2.728l0.21 0.262 0.315 0.157h0.577c0.31-0.128 0.525-0.428 0.525-0.778 0-0.003-0-0.006-0-0.009v0-0.21h-0.525v0.315l-0.105 0.157h-0.105l-0.105 0.052c-0.015 0.003-0.032 0.005-0.049 0.005-0.088 0-0.165-0.043-0.213-0.109l-0.001-0.001-0.052-0.262v-1.836l0.052-0.315c0.048-0.067 0.126-0.11 0.213-0.11 0.017 0 0.034 0.002 0.051 0.005l-0.002-0c0.086 0 0.161 0.041 0.209 0.104l0 0.001c0.105 0.052 0.105 0.157 0.105 0.262v0.157h0.525v-0.21c-0.006-0.245-0.105-0.466-0.263-0.63l0 0zM21.823 24.079c-0.16-0.129-0.366-0.207-0.59-0.207-0.108 0-0.212 0.018-0.309 0.052l0.007-0.002c-0.105 0-0.21 0.052-0.262 0.157l-0.21 0.262-0.052 0.367v1.941l0.052 0.367c0 0.105 0.105 0.21 0.21 0.262l0.262 0.21c0.093 0.036 0.202 0.057 0.315 0.057s0.221-0.021 0.321-0.059l-0.006 0.002 0.262-0.21c0.162-0.153 0.263-0.37 0.263-0.61 0-0.007-0-0.014-0-0.021l0 0.001v-1.993l-0.052-0.367c0-0.105-0.105-0.21-0.21-0.262zM21.613 26.649c0 0.002 0 0.003 0 0.005 0 0.1-0.040 0.191-0.105 0.257l0-0c-0.067 0.068-0.16 0.11-0.262 0.11s-0.196-0.042-0.262-0.11l-0-0c-0.065-0.058-0.106-0.142-0.106-0.236 0-0.009 0-0.019 0.001-0.028l-0 0.001v-1.993c-0-0.002-0-0.003-0-0.005 0-0.1 0.040-0.191 0.105-0.257l-0 0c0.067-0.068 0.16-0.11 0.262-0.11s0.196 0.042 0.262 0.11l0 0c0.065 0.066 0.105 0.157 0.105 0.257 0 0.002 0 0.004-0 0.006v-0 1.941zM25.915 27.489v-3.62h-0.525l-0.63 1.941-0.682-1.941h-0.525v3.672h0.525v-2.256l0.525 1.574h0.262l0.525-1.574v2.203h0.525zM28.852 24.131l-0.315-0.21h-1.154v3.567h0.525v-1.416h0.262c0.157 0 0.315 0 0.472-0.105 0.105 0 0.21-0.157 0.262-0.262l0.157-0.315c0.028-0.142 0.044-0.305 0.044-0.472s-0.016-0.33-0.046-0.488l0.003 0.016-0.21-0.315zM28.59 25.233l-0.052 0.21-0.157 0.105c-0.039 0.011-0.085 0.017-0.131 0.017s-0.092-0.006-0.135-0.017l0.004 0.001h-0.21v-1.154h0.472l0.157 0.157v0.63zM31.266 23.869h-0.42l-0.787 3.672h0.525l0.157-0.839h0.682l0.157 0.787h0.525l-0.839-3.62zM30.793 26.23l0.262-1.311 0.262 1.311h-0.525zM34.623 26.072l-0.839-2.203h-0.472v3.672h0.525v-2.203l0.787 2.151h0.525v-3.62h-0.525v2.203zM37.77 23.869l-0.42 1.469-0.472-1.469h-0.525l0.734 2.098v1.574h0.525v-1.574l0.682-2.098h-0.525zM17.311 28.538h0.262v0.682h0.157v-0.682h0.262v-0.21h-0.682v0.157zM19.41 28.328l-0.315 0.892h0.157l0.052-0.21h0.367l0.052 0.21h0.21l-0.367-0.839h-0.157zM19.41 28.852l0.052-0.262 0.157 0.315h-0.262zM21.508 28.905h0.157v0.105l-0.21 0.052c-0.005 0-0.012 0.001-0.018 0.001-0.054 0-0.103-0.020-0.14-0.053l0 0-0.105-0.21c0-0.21 0.105-0.315 0.262-0.315 0.016-0.006 0.034-0.009 0.053-0.009 0.087 0 0.157 0.070 0.157 0.157 0 0.003-0 0.006-0 0.010l0-0h0.157c0-0.21-0.157-0.262-0.367-0.262-0.105 0-0.21 0-0.315 0.105-0.066 0.074-0.106 0.172-0.106 0.279 0 0.012 0.001 0.025 0.002 0.037l-0-0.002c0 0.105 0 0.21 0.105 0.315 0.074 0.066 0.172 0.106 0.279 0.106 0.012 0 0.025-0.001 0.037-0.002l-0.002 0c0.157 0 0.262 0 0.367-0.105v-0.367h-0.367v0.157zM23.607 28.328h-0.21v0.892h0.577v-0.157h-0.367v-0.682zM25.338 28.328h-0.157v0.892h0.157v-0.892zM27.069 28.957l-0.315-0.63h-0.157v0.839h0.157v-0.525l0.315 0.525h0.157v-0.839h-0.157v0.525zM28.643 28.852h0.42v-0.157h-0.42v-0.157h0.472v-0.21h-0.63v0.839h0.63v-0.157h-0.472v-0.157zM32.525 28.695h-0.367v-0.315h-0.157v0.839h0.157v-0.367h0.315v0.367h0.157v-0.892h-0.105v0.315zM34.098 28.852h0.367v-0.157h-0.367v-0.157h0.472v-0.21h-0.63v0.839h0.63v-0.157h-0.472v-0.157zM36.197 28.852c0.157 0 0.21-0.105 0.21-0.262 0-0.005 0.001-0.012 0.001-0.018 0-0.054-0.020-0.103-0.053-0.14l0 0c-0.064-0.034-0.139-0.054-0.22-0.054-0.015 0-0.030 0.001-0.044 0.002l0.002-0h-0.367v0.839h0.21v-0.367h0.105l0.052 0.105 0.21 0.262h0.21l-0.105-0.157-0.21-0.21zM36.039 28.748h-0.105v-0.21h0.262c0.022 0.019 0.036 0.047 0.036 0.079s-0.014 0.059-0.035 0.079l-0 0c-0.024 0.004-0.051 0.006-0.079 0.006s-0.055-0.002-0.082-0.006l0.003 0zM37.823 28.852h0.42v-0.157h-0.42v-0.157h0.472v-0.21h-0.63v0.839h0.63v-0.157h-0.472v-0.157z"></path>
</symbol>
<symbol id="icon-Logo--1" viewBox="0 0 56 32">
<path d="M19.934 4.039l3.672 3.462h-6.82v16.892h17.836v-6.452l3.672 3.462v-17.311h-18.361zM34.466 17.521l-10.439-9.862h10.439v9.862zM31.213 21.928h-11.593v-11.331h0.787v10.597h10.807v0.734zM22.348 26.649l-0.42 0.892-0.42-0.892h-0.367l0.63 1.207v0.682h0.315v-0.734l0.63-1.207h-0.367zM22.872 28.538l0.157-0.472h0.734l0.157 0.472h0.315l-0.63-1.889h-0.315l-0.734 1.889h0.315zM23.397 27.069l0.262 0.734h-0.525l0.262-0.734zM25.18 27.803l-0.105 0.21c0 0.157 0.052 0.315 0.21 0.367 0.105 0.105 0.21 0.157 0.42 0.157 0.157 0 0.315 0 0.472-0.157l0.105 0.157h0.367l-0.262-0.367c0.105-0.105 0.157-0.315 0.157-0.525h-0.315c0 0.105 0 0.21-0.105 0.315l-0.367-0.42 0.157-0.105 0.157-0.157c0.043-0.065 0.069-0.144 0.069-0.23 0-0.115-0.046-0.219-0.121-0.295l0 0c-0.080-0.066-0.184-0.105-0.297-0.105-0.006 0-0.012 0-0.018 0l0.001-0c-0.015-0.001-0.032-0.002-0.049-0.002-0.12 0-0.231 0.040-0.319 0.108l0.001-0.001c-0.105 0.105-0.157 0.21-0.157 0.367l0.052 0.157 0.157 0.262c-0.103 0.072-0.19 0.159-0.26 0.259l-0.002 0.003zM26.020 28.171c-0.087 0.066-0.196 0.105-0.315 0.105v0l-0.21-0.052c-0.064-0.048-0.105-0.124-0.105-0.21v0c0-0.105 0.052-0.21 0.157-0.262h0.052l0.42 0.42zM25.652 27.384l-0.105-0.262v-0.157l0.21-0.105 0.105 0.052 0.052 0.157-0.052 0.157-0.21 0.157zM28.695 28.38c0.157-0.105 0.21-0.262 0.21-0.472h-0.315c0 0.157 0 0.21-0.105 0.315l-0.315 0.052c-0.004 0-0.009 0-0.013 0-0.124 0-0.234-0.062-0.301-0.156l-0.001-0.001-0.105-0.472v-0.157c0-0.21 0.052-0.315 0.157-0.42 0.052-0.105 0.157-0.157 0.315-0.157l0.262 0.052 0.105 0.315h0.315c0-0.21-0.052-0.367-0.21-0.525l-0.525-0.105c-0.105 0-0.262 0-0.367 0.105-0.105 0.052-0.21 0.157-0.262 0.315-0.061 0.122-0.099 0.266-0.105 0.418l-0 0.002v0.21c0 0.157 0 0.315 0.105 0.42 0.052 0.157 0.157 0.262 0.262 0.315l0.367 0.105c0.262 0 0.42 0 0.525-0.157zM30.636 28.118l0.052-0.525v-0.052c0-0.21 0-0.367-0.105-0.525-0.128-0.219-0.362-0.365-0.629-0.367h-0c-0.157 0-0.315 0-0.42 0.105-0.105 0.052-0.21 0.157-0.262 0.315-0.105 0.105-0.105 0.315-0.105 0.472v0.105c0 0.157 0 0.315 0.105 0.472 0 0.157 0.157 0.262 0.262 0.315l0.42 0.105c0.157 0 0.262 0 0.367-0.105 0.157-0.052 0.21-0.157 0.315-0.315zM30.269 27.069l0.105 0.472v0.105c0 0.21 0 0.367-0.105 0.472l-0.315 0.157c-0.019 0.003-0.040 0.005-0.062 0.005-0.127 0-0.238-0.064-0.304-0.161l-0.001-0.001-0.105-0.525v-0.052c0-0.21 0-0.367 0.105-0.525l0.367-0.105c0.105 0 0.21 0 0.315 0.157z"></path>
</symbol>
<symbol id="icon-Logo1" viewBox="0 0 57 32">
<path d="M28.48 14.613c-0.202-0.265-0.323-0.6-0.323-0.964 0-0.036 0.001-0.072 0.004-0.107l-0 0.005v-1.547c0-0.427 0.107-0.8 0.32-1.067 0.213-0.213 0.587-0.373 1.067-0.373 0.533 0 0.907 0.107 1.067 0.32 0.267 0.267 0.373 0.587 0.32 0.907v0.373h-0.853v-0.693c0-0.107-0.107-0.16-0.16-0.213-0.088-0.067-0.199-0.107-0.32-0.107v0c-0.121 0-0.232 0.040-0.321 0.108l0.001-0.001c-0.107 0-0.16 0.107-0.16 0.213v2.24l0.053 0.533 0.213 0.107 0.213 0.053c0.107 0 0.213 0 0.32-0.107l0.107-0.213v-0.747h0.907v0.373c0 0.32-0.053 0.64-0.267 0.96-0.213 0.213-0.533 0.32-1.067 0.32s-0.907-0.107-1.067-0.373zM32.16 14.613c-0.267-0.213-0.373-0.533-0.373-1.067v-1.6c0-0.427 0.107-0.8 0.373-1.067 0.213-0.16 0.533-0.32 1.067-0.32s0.907 0.16 1.12 0.373c0.213 0.213 0.32 0.533 0.32 1.067v1.6c0 0.427-0.107 0.8-0.32 1.067-0.213 0.213-0.587 0.32-1.067 0.32-0.533 0-0.907-0.107-1.12-0.373zM33.653 14.24l0.107-0.48v-1.973c0-0.16 0-0.32-0.107-0.48l-0.16-0.107c-0.040-0.011-0.086-0.017-0.133-0.017s-0.093 0.006-0.137 0.018l0.004-0.001c-0.032-0.007-0.069-0.011-0.107-0.011s-0.075 0.004-0.11 0.011l0.003-0.001-0.16 0.107c-0.107 0.16-0.16 0.32-0.107 0.48v1.973c0 0.16 0 0.32 0.107 0.533l0.16 0.107c0.071 0.030 0.154 0.047 0.24 0.047s0.169-0.017 0.244-0.048l-0.004 0.002 0.16-0.16zM35.733 10.667h0.96l0.693 2.933 0.747-2.987h0.907l0.053 4.32h-0.64l-0.107-2.987-0.693 2.987h-0.533l-0.693-2.987-0.16 2.987h-0.693l0.107-4.267zM40.16 10.667h1.493c0.853 0 1.28 0.373 1.28 1.173s-0.48 1.173-1.333 1.173h-0.533v1.92h-0.907v-4.267zM41.44 12.48h0.267l0.213-0.16 0.16-0.48-0.053-0.373-0.053-0.107-0.16-0.107c-0.107-0.053-0.267-0.107-0.373-0.053h-0.373v1.28h0.373zM44.267 10.667h0.907l1.067 4.267h-0.907l-0.16-1.013h-0.907l-0.213 1.013h-0.853l1.067-4.267zM45.067 13.44l-0.373-1.813-0.32 1.813h0.693zM46.987 10.667h0.64l1.227 2.4v-2.4h0.747v4.267h-0.587l-1.227-2.56v2.56h-0.853v-4.267zM51.36 13.333l-1.013-2.667h0.853l0.64 1.653 0.533-1.707h0.853l-1.013 2.667v1.653h-0.853v-1.6zM29.867 16.8v0.267h-0.693v1.707h-0.373v-1.707h-0.747v-0.267h1.813zM32.213 18.773h-0.373l-0.213-0.533h-1.013l-0.213 0.533h-0.32l0.907-1.973h0.32l0.907 1.973zM30.72 18.133h0.853l-0.373-0.8-0.053-0.213v0.107l-0.053 0.107-0.373 0.8zM33.76 18.613h0.16c0.115-0.001 0.225-0.021 0.328-0.056l-0.008 0.002 0.107-0.053v-0.48h-0.427v-0.16h0.693v0.747c-0.167 0.11-0.366 0.186-0.58 0.213l-0.007 0.001h-0.267c-0.16 0-0.32 0-0.48-0.107-0.142-0.031-0.267-0.087-0.377-0.162l0.004 0.002-0.213-0.32-0.107-0.427c0-0.16 0-0.267 0.107-0.427 0-0.107 0.107-0.213 0.213-0.32 0.107-0.053 0.213-0.16 0.373-0.16 0.173-0.073 0.374-0.115 0.585-0.115 0.057 0 0.113 0.003 0.168 0.009l-0.007-0.001c0.142 0.035 0.266 0.090 0.378 0.163l-0.005-0.003 0.16 0.107-0.053 0.107h-0.213l-0.16-0.107c-0.109-0.054-0.235-0.092-0.368-0.106l-0.005-0c-0.138 0.014-0.265 0.051-0.379 0.109l0.006-0.003-0.267 0.107-0.16 0.267v0.693c0 0.107 0.107 0.213 0.213 0.267 0.142 0.133 0.334 0.214 0.545 0.214 0.015 0 0.029-0 0.044-0.001l-0.002 0zM36.64 18.56h1.013v0.213h-1.28v-1.973h0.267v1.76zM38.667 18.773h-0.267v-1.973h0.32v1.973zM39.84 16.8v0.053l1.387 1.493v-1.547h0.267v1.973h-0.267l-1.333-1.493v1.547h-0.267v-1.973h0.16zM43.733 16.8v0.213h-1.067v0.693h0.853v0.213h-0.853v0.64h1.067v0.213h-1.387v-1.973h1.387zM11.307 4.64l13.76 3.36v11.733l-13.76-3.36v-11.733zM10.4 3.573v13.493l15.52 3.733v-13.333l-15.467-3.84z"></path>
<path d="M18.72 27.040l-15.52-3.787v-13.44l15.52 3.84v13.333z"></path>
<path d="M10.667 4.48l13.547 3.307-5.76 5.013-13.547-3.36 5.76-4.96zM10.4 3.627l-7.2 6.187 15.52 3.84 7.2-6.24-15.467-3.787zM19.573 26.293l6.4-5.493-6.4-1.547v7.040z"></path>
</symbol>
<symbol id="icon-Logo-1" viewBox="0 0 57 32">
<path d="M14.293 23.84c0.107 0.16 0.16 0.373 0.16 0.533l-0.053 0.373-0.213 0.267c-0.267 0.213-0.587 0.267-0.907 0.267h-1.547v-3.307h1.493c0.32 0 0.64 0.053 0.853 0.213l0.213 0.267 0.107 0.373c0 0.16-0.053 0.373-0.213 0.533l-0.427 0.213c0.213 0 0.373 0.16 0.533 0.267zM12.48 23.36h0.64c0.107 0 0.267 0 0.373-0.107l0.107-0.16 0.053-0.16v-0.16l-0.16-0.16c-0.107-0.107-0.267-0.107-0.427-0.107h-0.587v0.853zM13.547 24.64l0.16-0.16v-0.373l-0.107-0.16c-0.16-0.107-0.32-0.107-0.48-0.107h-0.64v0.907h0.64c0.16 0 0.32 0 0.48-0.107zM17.387 25.28l-0.853-1.28h-0.32v1.28h-0.747v-3.307h1.387c0.373 0 0.693 0.107 0.96 0.267 0.213 0.213 0.32 0.427 0.32 0.693s-0.053 0.533-0.213 0.693c-0.16 0.16-0.427 0.267-0.64 0.32l0.907 1.333h-0.8zM16.213 23.52h0.587c0.427 0 0.64-0.16 0.64-0.48l-0.053-0.213c-0.027-0.062-0.063-0.115-0.107-0.16l0 0-0.48-0.16h-0.587v1.067zM21.333 24.64h-1.44l-0.267 0.64h-0.747l1.333-3.253h0.8l1.333 3.253h-0.747l-0.267-0.64zM21.12 24.107l-0.533-1.387-0.533 1.387h1.067zM26.293 25.28h-0.693l-1.6-2.24v2.24h-0.747v-3.307h0.693l1.6 2.24v-2.24h0.747v3.307zM30.4 24.533c-0.107 0.213-0.373 0.427-0.64 0.533-0.32 0.16-0.64 0.213-1.013 0.213h-1.28v-3.307h1.333c0.373 0 0.693 0.053 1.067 0.213 0.213 0.107 0.48 0.32 0.587 0.533 0.143 0.254 0.228 0.557 0.228 0.88s-0.084 0.626-0.233 0.889l0.005-0.009zM29.6 24.427c0.195-0.209 0.315-0.491 0.315-0.8s-0.12-0.591-0.316-0.801l0.001 0.001c-0.267-0.213-0.533-0.32-0.907-0.267h-0.533v2.133h0.533c0.32 0 0.64-0.107 0.907-0.267zM21.813 3.627s9.28 3.2 9.067 7.84v7.893s-9.28-3.2-9.067-7.893v-7.84zM39.2 17.493c1.76-1.067 3.733-1.76 5.867-1.973v-2.453c-2.425 0.857-4.431 2.398-5.842 4.389l-0.025 0.037z"></path>
<path d="M38.133 18.24c1.44-2.667 3.947-4.693 6.933-5.707v-7.093s-13.227 4.587-12.96 11.2v11.2l1.547-0.587v-1.067c0.32-3.093 1.92-5.92 4.48-7.947z"></path>
<path d="M36.853 22.4c0.107-0.747 0.213-1.547 0.48-2.293-1.678 1.77-2.738 4.14-2.826 6.756l-0 0.017 2.56-1.227c-0.213-1.067-0.32-2.133-0.213-3.2zM37.387 22.4c-0.029 0.287-0.045 0.62-0.045 0.957 0 0.718 0.075 1.419 0.217 2.096l-0.012-0.066c3.627-1.973 7.68-5.067 7.52-8.747v-0.32c-2.56 0.267-5.013 1.28-6.88 2.933-0.427 1.067-0.693 2.133-0.8 3.2z"></path>
</symbol>
<symbol id="icon-Logo-2" viewBox="0 0 57 32">
<path d="M12.853 11.253c-1.28 0-2.293 0.907-2.293 2.080 0 1.12 1.067 2.027 2.293 2.027 1.28 0 2.347-0.907 2.347-2.027 0-1.173-1.067-2.080-2.347-2.080zM29.973 10.613c0-1.6-0.693-3.093-1.973-4.267-1.227-1.067-2.933-1.707-4.747-1.707-1.76 0-3.467 0.64-4.747 1.76-1.227 1.067-1.92 2.667-1.92 4.213v8.693s13.333-1.333 13.333-8.693zM5.867 22.133c0 1.12 0.533 2.133 1.387 2.933 0.867 0.755 2.005 1.218 3.252 1.227h0.002c1.28 0 2.453-0.427 3.307-1.227 0.821-0.702 1.349-1.726 1.386-2.874l0-0.006v-6.080s-9.333 0.907-9.333 6.027zM10.507 23.2c-0.213 0-0.48 0-0.64-0.16-0.213-0.107-0.373-0.267-0.48-0.48-0.053-0.16-0.107-0.427-0.053-0.587 0-0.213 0.16-0.427 0.32-0.533 0.16-0.213 0.427-0.32 0.64-0.32h0.693c0.213 0.107 0.427 0.267 0.533 0.427 0.14 0.172 0.225 0.395 0.225 0.637 0 0.297-0.128 0.564-0.331 0.749l-0.001 0.001-0.427 0.213-0.48 0.107zM19.947 22.667h-0.907v0.907h-0.373v-2.24h1.44v0.427h-1.013v0.533h0.907v0.427zM22.187 22.507c0 0.213 0 0.427-0.107 0.533-0.146 0.317-0.461 0.534-0.826 0.534-0.009 0-0.019-0-0.028-0l0.001 0c-0.16 0-0.32 0-0.533-0.107l-0.32-0.373-0.107-0.587v-0.107c0-0.213 0-0.427 0.107-0.587 0.146-0.317 0.461-0.534 0.826-0.534 0.009 0 0.019 0 0.028 0l-0.001-0c0.213 0 0.373 0 0.533 0.107 0.107 0.107 0.267 0.267 0.32 0.427 0.107 0.16 0.107 0.373 0.107 0.533v0.16zM21.76 22.4c0-0.267-0.053-0.427-0.16-0.533-0.075-0.128-0.212-0.213-0.369-0.213-0.001 0-0.003 0-0.004 0h0c-0.16 0-0.267 0.053-0.373 0.213l-0.107 0.533v0.107c0 0.213 0 0.373 0.107 0.533 0.107 0.107 0.213 0.16 0.373 0.16s0.32 0 0.373-0.16c0.107-0.107 0.107-0.32 0.16-0.533v-0.107zM23.733 22.933s0-0.107-0.107-0.16l-0.32-0.16c-0.16 0-0.32-0.107-0.373-0.16-0.267-0.107-0.427-0.32-0.427-0.533l0.107-0.32c0.107-0.107 0.16-0.213 0.32-0.267l0.427-0.053 0.427 0.053 0.32 0.267 0.107 0.373h-0.48c0-0.107 0-0.16-0.107-0.267-0.061-0.036-0.134-0.057-0.213-0.057-0.019 0-0.038 0.001-0.056 0.004l0.002-0-0.267 0.053-0.107 0.213c0 0.053 0 0.107 0.107 0.16l0.32 0.16c0.267 0.053 0.48 0.16 0.587 0.267 0.16 0.16 0.213 0.267 0.213 0.48s-0.107 0.32-0.213 0.48c-0.16 0.107-0.373 0.16-0.64 0.16-0.16 0-0.32 0-0.48-0.107l-0.32-0.267-0.107-0.373h0.48c0 0.213 0.16 0.373 0.427 0.373 0.107 0 0.213 0 0.267-0.107l0.107-0.16zM26.24 21.707h-0.693v1.867h-0.48v-1.867h-0.693v-0.427h1.867v0.427zM27.84 22.613h-0.853v0.587h1.067v0.373h-1.6v-2.24h1.6v0.427h-1.067v0.533h0.907v0.373zM29.12 22.72h-0.32v0.853h-0.427v-2.24h0.8c0.32 0 0.533 0.107 0.64 0.213 0.16 0.107 0.213 0.267 0.213 0.533 0 0.107 0 0.267-0.107 0.373 0 0.107-0.16 0.16-0.267 0.213l0.48 0.96h-0.533l-0.427-0.853zM28.8 22.4h0.427l0.267-0.053 0.053-0.267-0.053-0.267-0.32-0.053h-0.373v0.64zM31.68 22.827v0.8h-0.533v-2.293h0.96l0.427 0.107 0.32 0.267 0.107 0.427c0 0.213-0.107 0.373-0.267 0.533-0.16 0.107-0.373 0.16-0.64 0.16h-0.373zM31.68 22.453h0.427c0.107 0 0.213 0 0.267-0.107l0.107-0.213c0-0.107 0-0.213-0.107-0.267-0.067-0.066-0.16-0.107-0.261-0.107-0.002 0-0.004 0-0.006 0h-0.426v0.64zM34.613 22.667h-0.907v0.587h1.067v0.373h-1.493v-2.293h1.387v0.427h-1.067v0.533h0.907v0.373zM36.8 21.76h-0.693v1.867h-0.48v-1.867h-0.693v-0.427h1.867v0.427zM38.4 22.667h-0.853v0.587h1.067v0.373h-1.547v-2.293h1.547v0.427h-1.067v0.533h0.853v0.373zM39.733 22.773h-0.373v0.853h-0.533v-2.293h0.907c0.267 0 0.48 0.107 0.587 0.213 0.16 0.107 0.213 0.267 0.213 0.533l-0.053 0.373-0.32 0.213 0.533 0.96h-0.533l-0.427-0.853zM39.36 22.4h0.373l0.267-0.053 0.107-0.267c0-0.107 0-0.213-0.107-0.267l-0.267-0.053h-0.373v0.64zM42.080 23.040l-0.053-0.213-0.373-0.16c-0.16 0-0.267-0.107-0.373-0.16-0.267-0.107-0.373-0.32-0.373-0.533 0-0.16 0-0.267 0.107-0.32 0-0.107 0.16-0.213 0.267-0.267l0.427-0.053 0.48 0.053 0.267 0.267 0.107 0.373h-0.48c0-0.107 0-0.16-0.107-0.267-0.061-0.036-0.134-0.057-0.213-0.057-0.019 0-0.038 0.001-0.056 0.004l0.002-0-0.267 0.053-0.107 0.213 0.16 0.16 0.32 0.16c0.267 0.053 0.427 0.16 0.533 0.267 0.16 0.16 0.213 0.267 0.213 0.48s-0.053 0.32-0.213 0.48c-0.16 0.107-0.373 0.16-0.587 0.16s-0.373 0-0.533-0.107l-0.32-0.267-0.107-0.373h0.533c0 0.213 0.107 0.373 0.427 0.373 0.107 0 0.16 0 0.267-0.107l0.053-0.16z"></path>
</symbol>
<symbol id="icon-Logo-3" viewBox="0 0 57 32">
<path d="M19.413 26.187l0.16 0.107-0.32 0.213-0.48 0.107c-0.16 0-0.267 0-0.427-0.107l-0.32-0.16-0.213-0.32c-0.049-0.118-0.078-0.256-0.078-0.4s0.029-0.282 0.080-0.407l-0.003 0.007 0.213-0.32c0.107-0.053 0.213-0.16 0.373-0.16 0.127-0.043 0.274-0.067 0.427-0.067s0.299 0.025 0.436 0.070l-0.010-0.003 0.32 0.16-0.107 0.107h-0.16l-0.053-0.053c-0.119-0.067-0.262-0.107-0.413-0.107-0.005 0-0.009 0-0.014 0h0.001l-0.32 0.053-0.267 0.16c0 0.107-0.107 0.16-0.16 0.267v0.64l0.16 0.213 0.267 0.16h0.48c0.144-0.016 0.272-0.074 0.374-0.161l-0.001 0.001h0.053zM22.773 25.6l-0.053 0.427-0.267 0.32-0.32 0.16c-0.267 0.107-0.587 0.107-0.907 0-0.122-0.038-0.229-0.092-0.323-0.162l0.003 0.002-0.213-0.32c-0.049-0.118-0.078-0.256-0.078-0.4s0.029-0.282 0.080-0.407l-0.003 0.007c0-0.107 0.107-0.213 0.213-0.32l0.32-0.16c0.32-0.107 0.64-0.107 0.907 0l0.32 0.16c0.197 0.167 0.322 0.416 0.322 0.693 0 0.019-0.001 0.038-0.002 0.057l0-0.003zM22.453 25.6v-0.267c-0.064-0.205-0.222-0.363-0.422-0.425l-0.005-0.001c-0.096-0.031-0.206-0.049-0.32-0.049s-0.224 0.018-0.328 0.051l0.008-0.002-0.267 0.16-0.16 0.267v0.587c0.064 0.205 0.222 0.363 0.422 0.425l0.005 0.001h0.64l0.213-0.16c0.107-0.053 0.16-0.16 0.16-0.267l0.053-0.267zM25.067 25.973v0.053l0.053-0.053v-0.107l0.8-1.173h0.373v1.867h-0.267v-1.493l-0.747 1.173-0.107 0.053h-0.107l-0.907-1.227v1.547h-0.267v-1.867h0.32l0.747 1.173 0.053 0.107zM27.84 25.867v0.693h-0.267v-1.867h1.013c0.107 0 0.16 0.107 0.267 0.16l0.107 0.16 0.053 0.267v0.213l-0.213 0.213-0.213 0.107-0.373 0.053h-0.373zM27.84 25.653h0.587l0.16-0.107 0.107-0.107v-0.373c0-0.053 0-0.107-0.107-0.16l-0.373-0.107h-0.373v0.8zM31.787 26.56h-0.32l-0.213-0.533h-1.013l-0.213 0.533h-0.32l0.853-1.867h0.32l0.907 1.867zM30.347 25.867h0.8l-0.32-0.747-0.107-0.213v0.213l-0.373 0.747zM33.067 24.693l1.28 1.44v-1.44h0.267v1.867h-0.213l-1.333-1.493v1.44h-0.267v-1.867h0.213zM36.747 25.813v0.747h-0.267v-0.747l-0.853-1.12h0.373l0.533 0.8c0.019 0.044 0.037 0.097 0.052 0.152l0.002 0.008 0.053-0.107 0.053-0.053 0.533-0.747v-0.053h0.32l-0.747 1.12zM24.907 21.493h0.427c1.934-0.748 3.542-1.978 4.727-3.546l0.019-0.027c1.173-1.6 1.76-3.413 1.707-5.333l-2.133-1.813c0.131 0.595 0.206 1.278 0.206 1.979 0 1.428-0.312 2.783-0.871 4.001l0.025-0.060c-0.908 1.992-2.315 3.621-4.065 4.774l-0.042 0.026z"></path>
<path d="M24.16 21.333v0.053c2.027-1.227 3.52-2.933 4.373-4.907s0.96-4.16 0.373-6.187l-3.040-2.667c0.962 1.642 1.53 3.616 1.53 5.722 0 3.105-1.234 5.922-3.239 7.987l0.003-0.003zM34.613 14.827c-0.585 2.2-1.871 4.040-3.6 5.315l-0.026 0.019-1.76 1.067c1.558-0.405 2.916-1.105 4.073-2.042l-0.020 0.016c1.067-0.907 2.027-2.027 2.56-3.253l-1.227-1.067z"></path>
<path d="M34.133 14.56l-1.813-1.6c0 1.813-0.587 3.52-1.653 5.013s-2.56 2.72-4.373 3.573l1.227-0.053c1.653-0.587 3.147-1.6 4.267-2.773 1.087-1.123 1.888-2.529 2.28-4.098l0.013-0.062zM24.427 6.507l-2.133-1.867c-1.896 0.618-3.489 1.729-4.679 3.182l-0.014 0.018c-1.087 1.346-1.749 3.075-1.76 4.957v0.003c0 1.973 0.747 3.84 2.133 5.333 1.387 1.6 3.36 2.667 5.493 3.2 1.996-2.037 3.228-4.83 3.228-7.91 0-2.593-0.873-4.982-2.341-6.89l0.020 0.027zM38.987 14.24c0-2.293-1.067-4.533-2.933-6.133-1.898-1.63-4.386-2.623-7.105-2.623-1.276 0-2.5 0.218-3.638 0.62l0.077-0.024 12.96 11.307c0.427-1.013 0.64-2.080 0.64-3.147z"></path>
</symbol>
<symbol id="icon-smartphone" viewBox="0 0 20 32">
<path fill="#757575" style="fill: var(--color5, #757575)" d="M17 0h-14c-1.6 0-3 1.4-3 3v26c0 1.6 1.4 3 3 3h14c1.6 0 3-1.4 3-3v-26c0-1.6-1.4-3-3-3zM3 2h14c0.6 0 1 0.4 1 1v21h-16v-21c0-0.6 0.4-1 1-1zM17 30h-14c-0.552 0-1-0.448-1-1v0-3h16v3c0 0.6-0.4 1-1 1z"></path>
<path fill="#757575" style="fill: var(--color5, #757575)" d="M4.8 27.4v1.4c-0.4 0.4-1.2 0.4-1.6 0-0.248-0.139-0.413-0.4-0.413-0.7s0.165-0.561 0.409-0.698l0.004-0.002c0.4-0.2 1.2-0.2 1.6 0z"></path>
</symbol>
<symbol id="icon-smartphone-1" viewBox="0 0 20 32">
<path fill="#757575" style="fill: var(--color5, #757575)" d="M17 0h-14c-1.6 0-3 1.4-3 3v26c0 1.6 1.4 3 3 3h14c1.6 0 3-1.4 3-3v-26c0-1.6-1.4-3-3-3zM3 2h14c0.6 0 1 0.4 1 1v21h-16v-21c0-0.6 0.4-1 1-1zM17 30h-14c-0.552 0-1-0.448-1-1v0-3h16v3c0 0.6-0.4 1-1 1z"></path>
<path fill="#757575" style="fill: var(--color5, #757575)" d="M4.8 27.4v1.4c-0.4 0.4-1.2 0.4-1.6 0-0.248-0.139-0.413-0.4-0.413-0.7s0.165-0.561 0.409-0.698l0.004-0.002c0.4-0.2 1.2-0.2 1.6 0z"></path>
</symbol>
<symbol id="icon-Social-links" viewBox="0 0 150 32">
<path d="M149.818 16c0 0.019 0 0.041 0 0.064 0 8.837-7.163 16-16 16-4.434 0-8.447-1.804-11.345-4.718l-0.001-0.001c-2.915-2.899-4.718-6.911-4.718-11.346 0-8.837 7.163-16 16-16 0.022 0 0.045 0 0.067 0h-0.003c8.837 0 16 7.163 16 16v0z"></path>
<path d="M141.091 23.273v-5.309c0-2.618-0.582-4.655-3.636-4.655-1.455 0-2.4 0.8-2.836 1.6v-1.382h-2.909v9.745h2.982v-4.8c0-1.309 0.218-2.473 1.818-2.473 1.527 0 1.6 1.455 1.6 2.545v4.727h2.909zM126.764 13.527h3.055v9.745h-3.055v-9.745zM128.291 8.727c-0.945 0-1.745 0.727-1.745 1.745 0 0.945 0.727 1.745 1.745 1.745 0.964 0 1.745-0.781 1.745-1.745s-0.781-1.745-1.745-1.745v0z"></path>
<path d="M110.545 16c0 0.019 0 0.041 0 0.064 0 8.837-7.163 16-16 16-4.434 0-8.447-1.804-11.345-4.718l-0.001-0.001c-2.915-2.899-4.718-6.911-4.718-11.346 0-8.837 7.163-16 16-16 0.022 0 0.045 0 0.067 0h-0.003c8.837 0 16 7.163 16 16v0z"></path>
<path d="M96.945 11.127h1.382v-2.327l-1.964-0.073c-1.891 0-3.2 1.236-3.2 3.418v2.036h-2.182v2.618h2.182v6.473h2.545v-6.545h2.036l0.364-2.545h-2.4v-1.745c0-0.727 0.218-1.309 1.236-1.309z"></path>
<path d="M71.273 16c0 0.019 0 0.041 0 0.064 0 8.837-7.163 16-16 16-4.434 0-8.447-1.804-11.345-4.718l-0.001-0.001c-2.914-2.899-4.718-6.911-4.718-11.346 0-8.837 7.163-16 16-16 0.022 0 0.045 0 0.067 0h-0.003c8.837 0 16 7.163 16 16v0z"></path>
<path d="M62.545 11.491c-0.509 0.218-1.091 0.364-1.745 0.436 0.612-0.357 1.075-0.914 1.303-1.58l0.006-0.020c-0.582 0.364-1.164 0.582-1.891 0.727-0.546-0.586-1.322-0.951-2.183-0.951-1.647 0-2.982 1.335-2.982 2.982 0 0.234 0.027 0.461 0.078 0.68l-0.004-0.020c-2.473-0.145-4.655-1.309-6.109-3.127-0.255 0.431-0.407 0.949-0.407 1.503 0 1.041 0.533 1.957 1.341 2.49l0.011 0.007c-0.508-0.005-0.983-0.139-1.396-0.371l0.015 0.008c0 1.455 1.018 2.691 2.4 2.909-0.251 0.078-0.54 0.124-0.839 0.124-0.192 0-0.379-0.019-0.561-0.054l0.018 0.003c0.436 1.236 1.455 2.109 2.836 2.109-1.006 0.799-2.294 1.283-3.695 1.283-0.261 0-0.519-0.017-0.771-0.049l0.030 0.003c1.309 0.873 2.909 1.309 4.582 1.309 0.002 0 0.005 0 0.008 0 4.659 0 8.436-3.777 8.436-8.436 0-0.128-0.003-0.255-0.008-0.382l0.001 0.018c0.655-0.364 1.091-0.945 1.527-1.527z"></path>
<path d="M32 16c0 0.019 0 0.041 0 0.064 0 8.837-7.163 16-16 16-4.434 0-8.447-1.804-11.345-4.718l-0.001-0.001c-2.914-2.899-4.718-6.911-4.718-11.346 0-8.837 7.163-16 16-16 0.022 0 0.045 0 0.067 0h-0.003c8.837 0 16 7.163 16 16v0z"></path>
<path d="M23.273 13.018c0-0.727-0.145-1.309-0.364-1.745-0.145-0.509-0.436-0.945-0.8-1.309-0.359-0.374-0.796-0.67-1.285-0.864l-0.025-0.009c-1.428-0.146-3.086-0.229-4.764-0.229s-3.335 0.083-4.97 0.246l0.207-0.017c-0.509 0.218-0.945 0.509-1.309 0.873-0.339 0.344-0.61 0.755-0.791 1.212l-0.009 0.025c-0.218 0.509-0.364 1.018-0.364 1.818-0.016 0.471-0.025 1.024-0.025 1.579 0 2.186 0.141 4.34 0.415 6.452l-0.026-0.249c0.19 0.481 0.461 0.893 0.8 1.237l-0-0c0.359 0.374 0.796 0.67 1.284 0.864l0.025 0.009c0.436 0.145 0.945 0.291 1.745 0.291 0.569 0.022 1.237 0.034 1.907 0.034 2.070 0 4.112-0.118 6.12-0.348l-0.245 0.023c1.012-0.384 1.797-1.169 2.173-2.156l0.009-0.025 0.291-1.745c0.053-0.891 0.083-1.933 0.083-2.982s-0.030-2.091-0.090-3.125l0.007 0.143zM21.964 18.909c0 0.727-0.145 1.091-0.291 1.382-0.218 0.655-0.727 1.164-1.382 1.382-0.218 0.073-0.582 0.218-1.309 0.218-0.628 0.028-1.365 0.043-2.105 0.043-1.82 0-3.618-0.095-5.389-0.28l0.221 0.019c-0.313-0.115-0.58-0.289-0.8-0.509v0c-0.218-0.291-0.436-0.582-0.509-0.873-0.145-0.218-0.291-0.655-0.291-1.382-0.015-0.458-0.023-0.997-0.023-1.538 0-1.995 0.114-3.963 0.336-5.898l-0.022 0.236c0.073-0.291 0.291-0.582 0.509-0.8 0.218-0.291 0.509-0.436 0.8-0.582 0.291-0.073 0.727-0.218 1.455-0.218 0.596-0.025 1.296-0.039 1.999-0.039 1.806 0 3.591 0.093 5.349 0.276l-0.22-0.018c0.364 0.145 0.655 0.291 0.873 0.582 0.218 0.218 0.436 0.509 0.509 0.8 0.145 0.291 0.218 0.655 0.291 1.382 0.053 0.869 0.083 1.886 0.083 2.909s-0.030 2.040-0.089 3.048l0.007-0.139z"></path>
<path d="M16 12.291c-0.156-0.023-0.335-0.036-0.518-0.036-2.048 0-3.709 1.661-3.709 3.709s1.661 3.709 3.709 3.709c0.183 0 0.362-0.013 0.538-0.039l-0.020 0.002c1.71-0.353 2.978-1.847 2.978-3.636s-1.268-3.284-2.954-3.632l-0.024-0.004zM16 18.4c-1.325 0-2.4-1.075-2.4-2.4s1.075-2.4 2.4-2.4v0c1.325 0 2.4 1.075 2.4 2.4s-1.075 2.4-2.4 2.4v0zM20.8 12.145c0 0.482-0.391 0.873-0.873 0.873s-0.873-0.391-0.873-0.873v0c0-0.482 0.391-0.873 0.873-0.873s0.873 0.391 0.873 0.873v0z"></path>
</symbol>
<symbol id="icon-Social-links-1" viewBox="0 0 150 32">
<path d="M149.818 16c0 0.019 0 0.041 0 0.064 0 8.837-7.163 16-16 16-4.434 0-8.447-1.804-11.345-4.718l-0.001-0.001c-2.915-2.899-4.718-6.911-4.718-11.346 0-8.837 7.163-16 16-16 0.022 0 0.045 0 0.067 0h-0.003c8.837 0 16 7.163 16 16v0z"></path>
<path d="M141.091 23.273v-5.309c0-2.618-0.582-4.655-3.636-4.655-1.455 0-2.4 0.8-2.836 1.6v-1.382h-2.909v9.745h2.982v-4.8c0-1.309 0.218-2.473 1.818-2.473 1.527 0 1.6 1.455 1.6 2.545v4.727h2.909zM126.764 13.527h3.055v9.745h-3.055v-9.745zM128.291 8.727c-0.945 0-1.745 0.727-1.745 1.745 0 0.945 0.727 1.745 1.745 1.745 0.964 0 1.745-0.781 1.745-1.745s-0.781-1.745-1.745-1.745v0z"></path>
<path d="M110.545 16c0 0.019 0 0.041 0 0.064 0 8.837-7.163 16-16 16-4.434 0-8.447-1.804-11.345-4.718l-0.001-0.001c-2.915-2.899-4.718-6.911-4.718-11.346 0-8.837 7.163-16 16-16 0.022 0 0.045 0 0.067 0h-0.003c8.837 0 16 7.163 16 16v0z"></path>
<path d="M96.945 11.127h1.382v-2.327l-1.964-0.073c-1.891 0-3.2 1.236-3.2 3.418v2.036h-2.182v2.618h2.182v6.473h2.545v-6.545h2.036l0.364-2.545h-2.4v-1.745c0-0.727 0.218-1.309 1.236-1.309z"></path>
<path d="M71.273 16c0 0.019 0 0.041 0 0.064 0 8.837-7.163 16-16 16-4.434 0-8.447-1.804-11.345-4.718l-0.001-0.001c-2.914-2.899-4.718-6.911-4.718-11.346 0-8.837 7.163-16 16-16 0.022 0 0.045 0 0.067 0h-0.003c8.837 0 16 7.163 16 16v0z"></path>
<path d="M62.545 11.491c-0.509 0.218-1.091 0.364-1.745 0.436 0.612-0.357 1.075-0.914 1.303-1.58l0.006-0.020c-0.582 0.364-1.164 0.582-1.891 0.727-0.546-0.586-1.322-0.951-2.183-0.951-1.647 0-2.982 1.335-2.982 2.982 0 0.234 0.027 0.461 0.078 0.68l-0.004-0.020c-2.473-0.145-4.655-1.309-6.109-3.127-0.255 0.431-0.407 0.949-0.407 1.503 0 1.041 0.533 1.957 1.341 2.49l0.011 0.007c-0.508-0.005-0.983-0.139-1.396-0.371l0.015 0.008c0 1.455 1.018 2.691 2.4 2.909-0.251 0.078-0.54 0.124-0.839 0.124-0.192 0-0.379-0.019-0.561-0.054l0.018 0.003c0.436 1.236 1.455 2.109 2.836 2.109-1.006 0.799-2.294 1.283-3.695 1.283-0.261 0-0.519-0.017-0.771-0.049l0.030 0.003c1.309 0.873 2.909 1.309 4.582 1.309 0.002 0 0.005 0 0.008 0 4.659 0 8.436-3.777 8.436-8.436 0-0.128-0.003-0.255-0.008-0.382l0.001 0.018c0.655-0.364 1.091-0.945 1.527-1.527z"></path>
<path d="M32 16c0 0.019 0 0.041 0 0.064 0 8.837-7.163 16-16 16-4.434 0-8.447-1.804-11.345-4.718l-0.001-0.001c-2.914-2.899-4.718-6.911-4.718-11.346 0-8.837 7.163-16 16-16 0.022 0 0.045 0 0.067 0h-0.003c8.837 0 16 7.163 16 16v0z"></path>
<path d="M23.273 13.018c0-0.727-0.145-1.309-0.364-1.745-0.145-0.509-0.436-0.945-0.8-1.309-0.359-0.374-0.796-0.67-1.285-0.864l-0.025-0.009c-1.428-0.146-3.086-0.229-4.764-0.229s-3.335 0.083-4.97 0.246l0.207-0.017c-0.509 0.218-0.945 0.509-1.309 0.873-0.339 0.344-0.61 0.755-0.791 1.212l-0.009 0.025c-0.218 0.509-0.364 1.018-0.364 1.818-0.016 0.471-0.025 1.024-0.025 1.579 0 2.186 0.141 4.34 0.415 6.452l-0.026-0.249c0.19 0.481 0.461 0.893 0.8 1.237l-0-0c0.359 0.374 0.796 0.67 1.284 0.864l0.025 0.009c0.436 0.145 0.945 0.291 1.745 0.291 0.569 0.022 1.237 0.034 1.907 0.034 2.070 0 4.112-0.118 6.12-0.348l-0.245 0.023c1.012-0.384 1.797-1.169 2.173-2.156l0.009-0.025 0.291-1.745c0.053-0.891 0.083-1.933 0.083-2.982s-0.030-2.091-0.090-3.125l0.007 0.143zM21.964 18.909c0 0.727-0.145 1.091-0.291 1.382-0.218 0.655-0.727 1.164-1.382 1.382-0.218 0.073-0.582 0.218-1.309 0.218-0.628 0.028-1.365 0.043-2.105 0.043-1.82 0-3.618-0.095-5.389-0.28l0.221 0.019c-0.313-0.115-0.58-0.289-0.8-0.509v0c-0.218-0.291-0.436-0.582-0.509-0.873-0.145-0.218-0.291-0.655-0.291-1.382-0.015-0.458-0.023-0.997-0.023-1.538 0-1.995 0.114-3.963 0.336-5.898l-0.022 0.236c0.073-0.291 0.291-0.582 0.509-0.8 0.218-0.291 0.509-0.436 0.8-0.582 0.291-0.073 0.727-0.218 1.455-0.218 0.596-0.025 1.296-0.039 1.999-0.039 1.806 0 3.591 0.093 5.349 0.276l-0.22-0.018c0.364 0.145 0.655 0.291 0.873 0.582 0.218 0.218 0.436 0.509 0.509 0.8 0.145 0.291 0.218 0.655 0.291 1.382 0.053 0.869 0.083 1.886 0.083 2.909s-0.030 2.040-0.089 3.048l0.007-0.139z"></path>
<path d="M16 12.291c-0.156-0.023-0.335-0.036-0.518-0.036-2.048 0-3.709 1.661-3.709 3.709s1.661 3.709 3.709 3.709c0.183 0 0.362-0.013 0.538-0.039l-0.020 0.002c1.71-0.353 2.978-1.847 2.978-3.636s-1.268-3.284-2.954-3.632l-0.024-0.004zM16 18.4c-1.325 0-2.4-1.075-2.4-2.4s1.075-2.4 2.4-2.4v0c1.325 0 2.4 1.075 2.4 2.4s-1.075 2.4-2.4 2.4v0zM20.8 12.145c0 0.482-0.391 0.873-0.873 0.873s-0.873-0.391-0.873-0.873v0c0-0.482 0.391-0.873 0.873-0.873s0.873 0.391 0.873 0.873v0z"></path>
</symbol>
<symbol id="icon-Vector" viewBox="0 0 20 32">
<path fill="#757575" style="fill: var(--color5, #757575)" d="M17 0h-14c-1.6 0-3 1.4-3 3v26c0 1.6 1.4 3 3 3h14c1.6 0 3-1.4 3-3v-26c0-1.6-1.4-3-3-3zM3 2h14c0.6 0 1 0.4 1 1v21h-16v-21c0-0.6 0.4-1 1-1zM17 30h-14c-0.552 0-1-0.448-1-1v0-3h16v3c0 0.6-0.4 1-1 1z"></path>
</symbol>
</defs>
</svg>
