<svg width="106" height="61" fill="none" xmlns="http://www.w3.org/2000/svg"><path fill-rule="evenodd" clip-rule="evenodd" d="M50.1 6.6H49a24 24 0 0 0-1.3 0C44 7 40.4 7.9 37.1 9.4l-.5.2v22.2l1-.4a38.5 38.5 0 0 1 11-1.9v3h-1.1a32.4 32.4 0 0 0-13.7 3.8V7.8a29.7 29.7 0 0 1 15-4h.5a29.3 29.3 0 0 1 5.2.6v2.8a22.6 22.6 0 0 0-3.7-.5h-.7Zm5 3h2a31.5 31.5 0 0 0 15.1-3.8v27.9A29.8 29.8 0 0 1 51.6 37v-28a23 23 0 0 0 3.6.5Zm14.2.2-1 .3-2.8.9a34.3 34.3 0 0 1-10.2 1h-.8v22.7h.6l2 .2A26.9 26.9 0 0 0 69 32l.4-.2V9.8Z" fill="#AFB1B8"/><path d="M35.7 46a1.5 1.5 0 0 0-1-.5H34l-.5.4-.4.5v5.2l.4.5.6.3h1.1a1.6 1.6 0 0 0 1-1.5v-.4h-1v.6l-.2.3h-.2l-.2.1a.5.5 0 0 1-.5-.2l-.1-.5v-3.5l.1-.6a.5.5 0 0 1 .5-.2.5.5 0 0 1 .4.2c.2.1.2.3.2.5v.3h1v-.4a1.8 1.8 0 0 0-.5-1.2ZM41.6 45.9a1.8 1.8 0 0 0-1.7-.3c-.2 0-.4.1-.5.3l-.4.5-.1.7v3.7l.1.7c0 .2.2.4.4.5l.5.4a1.7 1.7 0 0 0 1.2 0l.5-.4a1.6 1.6 0 0 0 .5-1.2V47l-.1-.7c0-.2-.2-.4-.4-.5Zm-.4 4.9a.7.7 0 0 1-.2.5.7.7 0 0 1-1 0 .6.6 0 0 1-.2-.5V47a.7.7 0 0 1 .2-.5.7.7 0 0 1 1 0 .7.7 0 0 1 .2.5v3.7ZM49.4 52.4v-6.9h-1l-1.2 3.7-1.3-3.7h-1v7h1v-4.3l1 3h.5l1-3v4.2h1ZM55 46l-.6-.4h-2.2v6.8h1v-2.7h.5c.3 0 .6 0 .9-.2.2 0 .4-.3.5-.5l.3-.6a4.9 4.9 0 0 0 0-1.8L55 46Zm-.5 2.1-.1.4-.3.2a1 1 0 0 1-.5 0h-.4v-2.2h.9l.3.3V48ZM59.6 45.5h-.8l-1.5 7h1l.3-1.6h1.3l.3 1.5h1l-1.6-6.9Zm-.9 4.5.5-2.5.5 2.5h-1ZM66 49.7l-1.6-4.2h-.9v7h1v-4.2l1.5 4.1h1v-6.9h-1v4.2ZM72 45.5l-.8 2.8-.9-2.8h-1l1.4 4v3h1v-3l1.3-4h-1ZM33 54.4h.5v1.3h.3v-1.3h.5V54H33v.3ZM37 54l-.6 1.7h.3l.1-.4h.7l.1.4h.4l-.7-1.6H37Zm0 1 .1-.5.3.6h-.5ZM41 55.1h.3v.2l-.4.1a.4.4 0 0 1-.3-.1l-.2-.4c0-.4.2-.6.5-.6a.3.3 0 0 1 .4.3h.3c0-.4-.3-.5-.7-.5-.2 0-.4 0-.6.2a.8.8 0 0 0-.2.6c0 .2 0 .4.2.6a.8.8 0 0 0 .6.2c.3 0 .5 0 .7-.2v-.7h-.7v.3ZM45 54h-.4v1.7h1.1v-.3H45v-1.3ZM48.3 54H48v1.7h.3V54ZM51.6 55.2 51 54h-.3v1.6h.3v-1l.6 1h.3V54h-.3v1ZM54.6 55h.8v-.3h-.8v-.3h.9V54h-1.2v1.6h1.2v-.3h-.9V55ZM62 54.7h-.7v-.6H61v1.6h.3V55h.6v.7h.3V54H62v.6ZM65 55h.7v-.3H65v-.3h.9V54h-1.2v1.6h1.2v-.3H65V55ZM69 55c.3 0 .4-.2.4-.5a.4.4 0 0 0-.1-.3.9.9 0 0 0-.5-.1h-.7v1.6h.4V55h.2l.1.2.4.5h.4l-.2-.3-.4-.4Zm-.3-.2h-.2v-.4h.5a.2.2 0 0 1 0 .3 1 1 0 0 1-.3 0ZM72.1 55h.8v-.3h-.8v-.3h.9V54h-1.2v1.6H73v-.3h-.9V55Z" fill="#AFB1B8"/></svg>