<svg width="106" height="61" fill="none" xmlns="http://www.w3.org/2000/svg"><path fill-rule="evenodd" clip-rule="evenodd" d="m38 7.7 7 6.6H32v32.2h34V34.2l7 6.6v-33H38Zm27.7 25.7L45.8 14.6h19.9v18.8Zm-6.2 8.4H37.4V20.2h1.5v20.2h20.6v1.4Zm-16.9 9-.8 1.7-.8-1.7h-.7l1.2 2.3v1.3h.6V53l1.2-2.3h-.7Zm1 3.6.3-.9h1.4l.3.9h.6L45 50.8h-.6L43 54.4h.6Zm1-2.8.5 1.4h-1l.5-1.4ZM48 53l-.2.4c0 .3.1.6.4.7.2.2.4.3.8.3.3 0 .6 0 .9-.3l.2.3h.7l-.5-.7c.2-.2.3-.6.3-1H50c0 .2 0 .4-.2.6l-.7-.8.3-.2.3-.3a.8.8 0 0 0-.1-1 .9.9 0 0 0-.6-.2 1 1 0 0 0-.7.2c-.2.2-.3.4-.3.7l.1.3.3.5a2 2 0 0 0-.5.5Zm1.6.7a1 1 0 0 1-.6.2l-.4-.1a.5.5 0 0 1-.2-.4c0-.2.1-.4.3-.5h.1l.8.8Zm-.7-1.5-.2-.5v-.3l.4-.2.2.1.1.3-.1.3-.4.3Zm5.8 1.9c.3-.2.4-.5.4-.9h-.6c0 .3 0 .4-.2.6l-.6.1a.7.7 0 0 1-.6-.3l-.2-.9v-.3c0-.4.1-.6.3-.8.1-.2.3-.3.6-.3l.5.1.2.6h.6c0-.4-.1-.7-.4-1l-1-.2c-.2 0-.5 0-.7.2-.2.1-.4.3-.5.6a2 2 0 0 0-.2.8v.4c0 .3 0 .6.2.8.1.3.3.5.5.6l.7.2c.5 0 .8 0 1-.3Zm3.7-.5.1-1v-.1c0-.4 0-.7-.2-1a1.4 1.4 0 0 0-1.2-.7c-.3 0-.6 0-.8.2-.2.1-.4.3-.5.6-.2.2-.2.6-.2.9v.2c0 .3 0 .6.2.9 0 .3.3.5.5.6l.8.2c.3 0 .5 0 .7-.2.3-.1.4-.3.6-.6Zm-.7-2 .2.9v.2c0 .4 0 .7-.2.9l-.6.3a.7.7 0 0 1-.7-.3l-.2-1v-.1c0-.4 0-.7.2-1l.7-.2c.2 0 .4 0 .6.3Z" fill="#AFB1B8"/></svg>