<svg width="206" height="44" fill="none" xmlns="http://www.w3.org/2000/svg"><path d="M206 22a22 22 0 0 1-37.6 15.6A22 22 0 0 1 184 0a22 22 0 0 1 22 22Z" fill="#fff" fill-opacity=".1"/><g clip-path="url(#a)" fill="#fff"><path d="M194 32v-7.3c0-3.6-.8-6.4-5-6.4-2 0-3.3 1.1-3.9 2.2v-1.9h-4V32h4.1v-6.6c0-1.8.3-3.4 2.5-3.4 2.1 0 2.2 2 2.2 3.5V32h4ZM174.3 18.6h4.2V32h-4.2V18.6ZM176.4 12c-1.3 0-2.4 1-2.4 2.4 0 1.3 1 2.4 2.4 2.4a2.4 2.4 0 0 0 0-4.8Z"/></g><path d="M152 22a22 22 0 0 1-37.6 15.6A22 22 0 0 1 130 0a22 22 0 0 1 22 22Z" fill="#fff" fill-opacity=".1"/><g clip-path="url(#b)"><path d="M133.3 15.3h1.9v-3.2l-2.7-.1c-2.6 0-4.4 1.7-4.4 4.7v2.8h-3v3.6h3V32h3.5v-9h2.8l.5-3.5h-3.3v-2.4c0-1 .3-1.8 1.7-1.8Z" fill="#fff"/></g><path d="M98 22a22 22 0 0 1-37.6 15.6A22 22 0 0 1 76 0a22 22 0 0 1 22 22Z" fill="#2196F3"/><g clip-path="url(#c)"><path d="M86 15.8c-.7.3-1.5.5-2.4.6a4 4 0 0 0 1.8-2.2c-.8.5-1.6.8-2.6 1a4.1 4.1 0 0 0-7 3.7c-3.4-.2-6.4-1.8-8.4-4.3a4.1 4.1 0 0 0 1.3 5.5 4 4 0 0 1-1.9-.5c0 2 1.4 3.7 3.3 4a4 4 0 0 1-1.9.1c.6 1.7 2 2.9 3.9 2.9a8.2 8.2 0 0 1-6.1 1.7c1.8 1.2 4 1.8 6.3 1.8A11.6 11.6 0 0 0 83.9 18c.9-.5 1.5-1.3 2.1-2.1Z" fill="#fff"/></g><path d="M44 22A22 22 0 0 1 6.4 37.6 22 22 0 0 1 22 0a22 22 0 0 1 22 22Z" fill="#fff" fill-opacity=".1"/><g clip-path="url(#d)" fill="#fff"><path d="M32 17.9c0-1-.2-1.8-.5-2.4-.2-.7-.6-1.3-1.1-1.8a5 5 0 0 0-1.8-1.2 68.3 68.3 0 0 0-13.1 0c-.7.3-1.3.7-1.8 1.2a5 5 0 0 0-1.1 1.7c-.3.7-.5 1.4-.5 2.5a68.3 68.3 0 0 0 .5 10.7 5 5 0 0 0 1.1 1.7 5 5 0 0 0 1.8 1.2c.6.2 1.3.4 2.4.4a73.2 73.2 0 0 0 10.7-.4 5.1 5.1 0 0 0 3-3l.4-2.4a73.4 73.4 0 0 0 0-8.2ZM30.2 26c0 1-.2 1.5-.4 1.9-.3.9-1 1.6-1.9 1.9-.3.1-.8.3-1.8.3a70.4 70.4 0 0 1-10-.3 3 3 0 0 1-1.1-.7c-.3-.4-.6-.8-.7-1.2-.2-.3-.4-.9-.4-1.9a70.4 70.4 0 0 1 .4-9.9c.1-.4.4-.8.7-1.1.3-.4.7-.6 1.1-.8.4-.1 1-.3 2-.3a70.5 70.5 0 0 1 9.8.3c.5.2.9.4 1.2.8.3.3.6.7.7 1.1.2.4.3.9.4 1.9a70.5 70.5 0 0 1 0 8Z"/><path d="M22 16.9A5.1 5.1 0 1 0 22 27 5.1 5.1 0 0 0 22 17Zm0 8.4a3.3 3.3 0 1 1 0-6.6 3.3 3.3 0 0 1 0 6.6ZM28.6 16.7a1.2 1.2 0 1 1-2.4 0 1.2 1.2 0 0 1 2.4 0Z"/></g><defs><clipPath id="a"><path fill="#fff" transform="translate(174 12)" d="M0 0h20v20H0z"/></clipPath><clipPath id="b"><path fill="#fff" transform="translate(120 12)" d="M0 0h20v20H0z"/></clipPath><clipPath id="c"><path fill="#fff" transform="translate(66 12)" d="M0 0h20v20H0z"/></clipPath><clipPath id="d"><path fill="#fff" transform="translate(12 12)" d="M0 0h20v20H0z"/></clipPath></defs></svg>